<svg xmlns="http://www.w3.org/2000/svg" version="1" width="216" height="216"><path d="M153.5 200.525c-16.413-4.594-26.864-8.54-41-15.482-25.95-12.743-50.501-31.57-68.37-52.43-14.466-16.888-23.651-30.567-32.873-48.955-5.114-10.197-5.635-11.853-6.042-19.223-.419-7.568-.233-8.523 3.018-15.5 7.084-15.203 18.155-26.256 32.625-32.574 8.686-3.793 11.205-4.097 13.322-1.611C56.138 17.05 74 66.435 74 69.548c0 2.886-1.9 4.2-12.355 8.55-8.039 3.344-10.764 6.122-9.006 9.181.474.824 20.644 17.523 44.823 37.11C125.708 147.269 142.217 160 143.641 160c3.14 0 5.357-2.61 5.37-6.321.02-5.807 1.243-10.745 2.876-11.614 1.788-.952 5.587-1.387 31.113-3.562 24.364-2.077 26.622-2.017 28.407.747.799 1.238 1.759 5.427 2.133 9.31 1.622 16.826-5.082 32.64-19.272 45.459-12.163 10.988-20.181 12.267-40.768 6.506z"/><path d="M153.5 200.525c-33.351-9.334-61.284-24.036-87-45.792-22.522-19.055-41.215-43.104-55.243-71.075-5.114-10.197-5.635-11.853-6.042-19.223-.419-7.568-.233-8.523 3.018-15.5 7.142-15.328 18.794-26.8 33.447-32.93 8.28-3.465 10.434-3.681 12.5-1.255C56.138 17.05 74 66.435 74 69.548c0 2.886-1.9 4.2-12.355 8.55-8.039 3.344-10.764 6.122-9.006 9.181.474.824 20.644 17.523 44.823 37.11C125.708 147.269 142.217 160 143.641 160c3.269 0 5.358-2.657 5.365-6.821.008-5.435 1.817-10.99 3.775-11.593 2.269-.698 46.939-4.586 52.693-4.586 6.03 0 7.509 2.334 8.016 12.654.359 7.285-.728 14.807-3.342 23.138-1.534 4.89-9.328 15.308-15.88 21.227-12.163 10.988-20.181 12.267-40.768 6.506z"/><path d="M153.5 200.525c-16.136-4.516-26.668-8.498-41-15.5C67.81 163.191 29.905 124.361 9.003 79c-2.766-6.002-3.532-9.04-3.834-15.212-.359-7.336-.18-8.115 3.667-16 7.258-14.872 18.55-25.8 32.844-31.783C45.63 14.352 49.517 13 50.32 13c3.107 0 5.596 3.93 9.499 15 2.23 6.325 6.333 17.737 9.118 25.36 5.266 14.415 5.913 17.709 3.813 19.405-.688.555-5.242 2.734-10.122 4.843-9.022 3.898-11.775 6.564-9.989 9.671.474.824 20.644 17.523 44.823 37.11 45.732 37.044 47.92 38.503 50.503 33.677.57-1.064 1.038-3.427 1.04-5.25.01-5.109 1.87-10.643 3.776-11.23 2.269-.698 46.939-4.586 52.693-4.586 3.561 0 4.77.461 5.89 2.25 3.277 5.226 2.79 21.563-.974 32.703-3.359 9.942-16.95 24.93-26.89 29.652-7.164 3.404-14.985 3.122-30-1.08z"/><path d="M164.5 203.502c-.55-.187-6.175-1.771-12.5-3.52C90.841 183.065 39.454 140.634 11.618 84.066 5.98 72.611 5.472 71.023 5.146 63.855c-.337-7.393-.154-8.19 3.69-16.067 6.925-14.19 16.923-24.23 30.659-30.786 7.965-3.801 11.49-4.508 13.829-2.773C55.284 15.682 74 65.762 74 69.553c0 2.924-1.02 3.646-10.991 7.773-9.015 3.731-11.906 6.41-10.4 9.636.49 1.049 11.016 10.1 23.391 20.115a25745.739 25745.739 0 0 1 31.857 25.816C138.41 157.733 141.447 160 144.17 160c3.233 0 4.827-2.369 4.836-7.184.008-5.106 1.868-10.642 3.775-11.238 2.151-.671 47.21-4.562 52.946-4.571 6.254-.01 7.55 2.512 7.602 14.788.073 17.195-5.575 29.866-18.632 41.795-8.419 7.692-14.396 10.41-22.697 10.321-3.575-.038-6.95-.222-7.5-.409z"/><path d="M159.391 202c-22.189-5.26-50.52-17.642-70.391-30.762-33.047-21.821-59.2-51.228-77.097-86.694L5.5 71.857V63.18c0-7.858.323-9.332 3.41-15.587 3.243-6.568 10.13-15.988 14.548-19.9 4.517-3.997 15.378-10.532 20.91-12.58 6.167-2.283 9.054-2.089 10.511.706C56.922 19.737 74 67.894 74 69.736c0 2.707-1.145 3.506-10.5 7.325-9.66 3.944-11.99 5.854-11.16 9.155.406 1.622 14.531 13.698 43.674 37.34 23.69 19.22 44.34 35.481 45.887 36.138 4.682 1.989 6.675-.25 7.431-8.35.421-4.505 1.22-7.318 2.4-8.456 1.408-1.358 6.046-2.072 22.768-3.507 11.55-.99 24.365-1.82 28.477-1.841 7.302-.04 7.511.03 8.896 2.9 2.212 4.585 1.785 20.56-.766 28.632-3.793 12-15.766 26.167-27.08 32.04-5.89 3.058-14.216 3.358-24.636.887z"/><path d="M156.5 201.015C94.866 185.06 43.844 144.654 13.791 88 3.218 68.068 2.55 60.44 10.1 45.925c5.106-9.815 14.17-19.898 22.274-24.78 7.587-4.57 17.306-8.381 19.555-7.667 1.992.632 4.711 6.294 9.136 19.022 1.529 4.4 5.077 14.3 7.884 22 2.916 8 4.882 14.915 4.587 16.135-.385 1.59-3.08 3.23-10.55 6.42-7.851 3.353-10.16 4.79-10.617 6.612-.322 1.28-.346 2.95-.054 3.71.291.76 5.852 5.686 12.357 10.946A43275.24 43275.24 0 0 1 97 124.508C136.115 156.219 142.19 161 143.37 161c.652 0 2.139-.668 3.304-1.485 1.671-1.17 2.27-2.979 2.83-8.546.57-5.687 1.126-7.321 2.852-8.393 3.098-1.922 54.744-6.128 57.453-4.678 3.682 1.97 4.545 16.302 1.725 28.67-1.88 8.243-6.848 16.456-14.74 24.363-13.647 13.67-20.151 15.299-40.294 10.084z"/><path d="M163 202.437C116.458 192.384 71.81 164.97 39.322 126.5 24.907 109.43 6.385 76.432 5.321 65.925 4.208 54.931 10.538 41.511 22.5 29.505c8.289-8.319 19.863-14.777 26.736-14.918 5.162-.105 5.14-.143 13.31 22.429 9.689 26.763 11.477 32.336 10.93 34.057-.309.975-4.59 3.347-10.253 5.68-7.88 3.247-9.905 4.513-10.685 6.68-.635 1.765-.609 3.249.077 4.37 1.094 1.789 80.215 66.559 86.608 70.9 6.742 4.577 10.755.94 10.771-9.762.01-6.624.97-7.077 18.096-8.541 8.475-.725 20.975-1.834 27.776-2.465 15.715-1.458 16.096-1.206 16.849 11.196 1.066 17.56-3.332 28.662-16.624 41.972-6.863 6.872-9.755 9.035-14.379 10.75-6.618 2.455-9.615 2.549-18.712.584z"/><path d="M160.272 201.504c-29.79-6.927-59.016-20.915-85.808-41.067-16.173-12.165-38.206-36.383-50.358-55.354-6.23-9.727-15.273-26.88-17.04-32.323-3.708-11.422-.868-22.287 9.653-36.932 8.797-12.245 33.01-25.822 36.884-20.682 1.19 1.58 3.749 8.198 13.421 34.714 8.083 22.16 8.071 22.566-.736 25.608-9.774 3.376-13.766 5.857-14.102 8.764-.442 3.83.267 4.732 9.814 12.476 31.298 25.387 67.496 54.714 72.95 59.102 3.547 2.855 7.399 5.19 8.559 5.19 4.537 0 6.25-2.974 6.417-11.14.135-6.628 2.295-8.005 14.14-9.013 47.895-4.075 44.29-3.918 46.2-2.017 2.83 2.816 3.415 15.793 1.178 26.146-2.19 10.14-8.245 19.961-17.428 28.272-11.352 10.272-18.04 11.908-33.744 8.256z"/></svg>