<svg version="1" xmlns="http://www.w3.org/2000/svg" width="83" height="64" viewBox="0 0 830 640"><path d="M406 606c-33-28-46-33-72-29-44 7-120-23-145-59-16-22-24-26-34-18-7 6-24 8-38 5-43-11-61-41-70-118-5-40-10-85-12-102-2-16-4-30-6-30-1 0-3-27-4-59-2-33-9-77-16-98C-2 63-2 58 20 35c13-13 27-22 32-19 21 13 133 23 145 12 7-6 13-8 13-4s10 0 23-7c12-8 39-15 60-16 33-1 44 4 73 36 19 20 34 44 34 53s5 21 12 28c9 9 17 5 34-14 18-19 30-23 49-18 45 11 116 10 134-2 24-18 71-5 81 21 5 12 15 25 23 28 7 3 20 25 26 50 8 28 24 52 41 66 29 20 29 22 14 57-8 19-12 43-9 53 12 38-87 150-120 137-8-3-28 8-44 24-24 24-38 30-78 31-26 1-55 0-63-1-12-1-13 1-2 11 15 16 16 51 0 67-20 20-51 13-92-22z" fill="#ffc104"/><path d="M406 606c-33-28-46-33-72-29-44 7-120-23-145-59-16-22-24-26-34-18-7 6-24 8-38 5-43-11-61-41-70-118-5-40-10-85-12-102-2-16-4-30-6-30-1 0-3-27-4-59-2-33-9-77-16-98C-2 63-2 58 20 35c13-13 27-22 32-19 21 13 133 23 145 12 7-6 13-8 13-4s10 0 23-7c12-8 39-15 60-16 33-1 44 4 73 36 19 20 34 44 34 53s5 21 12 28c9 9 17 5 34-14 18-19 30-23 49-18 45 11 116 10 134-2 24-18 71-5 81 21 5 12 15 25 23 28 7 3 20 25 26 50 8 28 24 52 41 66 29 20 29 22 14 57-8 19-12 43-9 53 12 38-87 150-120 137-8-3-28 8-44 24-24 24-38 30-78 31-26 1-55 0-63-1-12-1-13 1-2 11 15 16 16 51 0 67-20 20-51 13-92-22zm74-14c0-10-6-24-12-31-26-25 34-48 108-42 12 1 27-5 34-14 7-8 17-12 23-8 5 3 7 2 4-4-4-6 0-19 8-29 11-16 17-17 33-7s23 8 41-8c11-11 21-26 21-34s7-15 15-15 15-3 16-7c4-44 2-73-5-73-5 0-2-8 7-18 22-24 21-29-2-35-18-4-47-72-44-104 0-7-3-10-8-8-4 3-14-2-21-10-36-43-40-46-53-35-7 5-49 12-94 13-77 3-84 6-107 33-17 19-27 25-31 16-2-7-12-20-21-29-9-8-18-24-19-35-9-59-53-85-112-67-20 6-54 13-76 15s-54 6-72 8c-20 3-36-1-44-10-10-12-13-12-24 3-9 11-10 22-4 29 5 6 11 42 14 80 4 70 6 84 24 209 6 39 10 76 11 83 0 18 47 15 58-4 13-24 46-13 50 16 5 32 30 60 53 60 10 0 21 5 24 10 8 12 52 13 59 1 10-16 54 1 87 35 36 37 59 44 59 16z" fill="#ffe7a0"/><path d="M406 606c-33-28-46-33-72-29-44 7-120-23-145-59-16-22-24-26-34-18-7 6-24 8-38 5-43-11-61-41-70-118-5-40-10-85-12-102-2-16-4-30-6-30-1 0-3-27-4-59-2-33-9-77-16-98C-2 63-2 58 20 35c13-13 27-22 32-19 21 13 133 23 145 12 7-6 13-8 13-4s10 0 23-7c12-8 39-15 60-16 33-1 44 4 73 36 19 20 34 44 34 53s5 21 12 28c9 9 17 5 34-14 18-19 30-23 49-18 45 11 116 10 134-2 24-18 71-5 81 21 5 12 15 25 23 28 7 3 20 25 26 50 8 28 24 52 41 66 29 20 29 22 14 57-8 19-12 43-9 53 12 38-87 150-120 137-8-3-28 8-44 24-24 24-38 30-78 31-26 1-55 0-63-1-12-1-13 1-2 11 15 16 16 51 0 67-20 20-51 13-92-22zm84-9c0-7-8-23-17-36-9-14-12-21-6-18 6 4 13 2 15-4s32-12 67-14c62-4 91-16 91-39 0-22 22-37 37-24 28 23 71-14 64-56-1-5 5-6 13-3 17 7 24-12 22-63-1-19 5-41 12-49 12-13 11-16-7-23-12-4-24-14-26-23-3-8-8-23-12-32-6-19-9-30-11-50-1-7-11-13-22-13-15 0-20-7-20-26 0-24-3-26-27-20-69 17-111 22-129 15-43-17-71-10-84 21s-40 41-40 15c0-8-6-15-14-15s-18-14-22-32c-3-18-13-43-22-56-13-20-22-23-66-21-28 2-54 7-58 13-8 13-137 18-157 6-27-15-57 39-31 55 5 3 10 34 10 68 1 34 5 82 11 107 5 25 12 70 15 100 4 30 10 65 15 77 11 29 45 30 59 3 15-28 45-11 53 30 4 17 15 33 24 36 10 3 27 10 38 14 35 15 65 18 71 9 13-22 40-10 92 44 19 20 62 23 62 4z" fill="#fffcf3"/></svg>