<svg width="46" height="69" viewBox="0 0 460 690"><path d="M200 663c-81-47-88-57-87-124 1-39-2-60-10-64-7-2-13-11-13-20 0-21-27-73-56-108C6 314-7 254 8 229c6-9 11-50 10-90 0-65 2-75 23-92 15-12 33-17 53-14 17 2 39 0 48-4 10-5 27-14 38-19 11-6 32-7 46-4 34 9 93 8 127-1 35-9 70 18 61 48-4 12 2 27 17 43 16 17 23 36 22 62-1 30-8 43-42 73-29 25-40 40-35 52 3 9 1 30-4 46-8 23-7 31 4 35 16 6 19 57 5 84-18 33-24 57-28 117-3 51-9 65-36 92-39 39-59 41-117 6z" fill="#ffc106"/><path d="M200 663c-81-47-88-57-87-124 1-39-2-60-10-64-7-2-13-11-13-20 0-21-27-73-56-108C6 314-7 254 8 229c6-9 11-50 10-90 0-65 2-75 23-92 15-12 33-17 53-14 17 2 39 0 48-4 10-5 27-14 38-19 11-6 32-7 46-4 34 9 93 8 127-1 35-9 70 18 61 48-4 12 2 27 17 43 16 17 23 36 22 62-1 30-8 43-42 73-29 25-40 40-35 52 3 9 1 30-4 46-8 23-7 31 4 35 16 6 19 57 5 84-18 33-24 57-28 117-3 51-9 65-36 92-39 39-59 41-117 6zm88-20c28-26 29-33 27-91-2-46 1-65 11-69 8-3 14-13 14-23 0-11 5-22 10-25 15-9 12-42-4-48-8-3-17-1-20 6-3 9-8 8-15-3-14-20-14-33 1-28 20 7 39-59 26-88-12-26 6-59 28-50 15 6 49-31 57-63 4-17-1-30-20-48-18-19-24-33-21-54 5-33-3-36-38-12-21 13-27 14-34 3-4-7-13-9-20-5s-30 2-51-5c-34-12-41-11-57 3-10 10-22 14-25 10-4-3-7-2-7 4s-18 8-44 6c-54-6-59 1-57 80 1 34-4 76-10 95-8 25-8 37 0 45 6 6 11 20 11 30s9 21 20 24 21 9 21 14c2 15 5 23 16 49 6 14 14 33 17 43 3 11 15 21 26 24 23 6 26 21 6 29-10 4-13 19-11 49 3 55 8 61 61 86 24 12 44 25 44 30 0 14 7 11 38-18z" fill="#ffe8a0"/><path d="M200 663c-81-47-88-57-87-124 1-39-2-60-10-64-7-2-13-11-13-20 0-21-27-73-56-108C6 314-7 254 8 229c6-9 11-50 10-90 0-65 2-75 23-92 15-12 33-17 53-14 17 2 39 0 48-4 10-5 27-14 38-19 11-6 32-7 46-4 34 9 93 8 127-1 35-9 70 18 61 48-4 12 2 27 17 43 16 17 23 36 22 62-1 30-8 43-42 73-29 25-40 40-35 52 3 9 1 30-4 46-8 23-7 31 4 35 16 6 19 57 5 84-18 33-24 57-28 117-3 51-9 65-36 92-39 39-59 41-117 6zm95-17c28-26 41-95 24-128-6-11-5-20 4-25 12-7 47-87 47-106 0-4-7-7-15-7-20 0-32-30-16-39 12-8 15-43 9-86-2-13 4-21 17-23 30-6 54-37 59-75 3-28-1-40-20-58-17-16-23-30-20-45 7-26-27-40-45-18-8 10-16 11-30 3-11-6-19-6-19 0 0 10-7 9-52-3-18-5-43-2-72 9-25 10-54 15-65 12-11-2-29 2-41 10-18 13-21 22-17 71 3 32 0 75-7 97-13 44-1 80 42 123 13 13 20 27 16 33-3 6 2 19 11 29s14 23 11 29c-4 6 5 13 19 17 28 7 31 16 12 32-9 8-11 26-8 59 5 40 11 50 36 63 17 8 32 17 35 20 8 8 45 29 52 29 4 1 19-10 33-23z" fill="#fffcf4"/></svg>