<svg width="708" height="612" viewBox="0 0 7080 6120"><path d="M4417 6108c-54-14-101-65-116-124-7-27-15-90-18-140l-6-91-57-6c-69-6-122-29-165-73-55-55-71-179-37-291 25-85 20-103-54-178-35-37-64-70-64-75s-18-27-40-50-45-60-52-83c-6-23-24-56-39-74-15-17-32-40-38-50-9-16-12-17-33-4-43 27-73 39-108 45-100 17-119 17-175 2l-60-15-33 32c-19 18-49 55-67 83-37 57-76 80-163 95-31 6-91 18-132 28-78 18-85 17-250-14-199-38-216-39-247-18-63 44-158 60-236 40-52-14-61-13-123 5-64 20-69 20-148 5-71-14-87-15-128-2-52 15-94 13-156-9-36-13-51-13-105-2-46 10-80 11-127 4-36-6-76-9-90-7s-59 3-100 3c-86 0-133-18-186-71-40-40-79-155-77-223 3-63-26-156-58-191-38-41-52-103-37-174 10-51 9-59-9-83-12-16-28-26-39-24-64 11-113 4-167-22-67-33-93-65-118-148-23-71-23-116-5-223 8-44 16-107 17-140l3-60-50-6c-27-4-114-12-194-18-80-7-167-17-193-23-63-13-110-59-126-121-14-60-14-374 0-434 12-47 67-113 94-113 8 0 25-21 37-46 12-26 37-58 57-72l36-26v-95c0-80 4-103 22-139 19-35 23-60 25-150 1-59-2-141-6-182-7-64-5-84 13-135 16-43 22-82 21-140-1-135 61-330 130-408 27-31 31-43 26-69-4-19 2-62 15-111 27-99 62-139 141-157 66-16 74-22 82-66 8-42 63-100 104-109 16-3 46-21 67-40 67-62 174-80 274-46 30 11 60 17 67 14 6-2 37 2 68 10l56 15v-29c0-28 18-126 46-248 25-109 78-166 173-186 105-22 134-88 144-323 8-185 19-234 63-277 51-51 97-57 419-53 249 3 284 5 318 22 51 25 75 63 92 142 16 79 34 101 88 109 23 3 82 17 130 31 49 14 98 22 109 19 10-4 51 1 90 10 61 15 76 24 123 71 52 53 55 54 110 54 31 0 86 8 122 17 54 13 75 25 109 59 28 27 45 55 49 78 6 30 12 36 32 36 79 0 178 56 232 131 17 22 48 53 70 69s67 67 100 112c33 46 74 98 91 115 17 18 36 45 42 60 7 16 23 42 35 59 13 17 23 35 23 40s27 40 60 78 60 75 60 81 17 29 38 52c41 44 72 128 72 196 0 26 6 39 20 47 11 6 31 30 45 54 22 38 30 44 70 49 24 4 73 19 107 33 71 30 127 34 209 14s156-2 207 49c145 147 168 189 179 324 3 38 10 67 17 68 6 0 19 2 30 4 10 2 35-7 55-20s55-29 79-35 63-24 89-40c25-16 59-32 76-36 18-4 45-17 62-30 16-12 59-30 93-40 54-15 72-16 120-6 30 6 73 23 94 37 29 19 50 25 95 25 88 0 170 27 214 71 46 46 61 105 57 225-1 49 3 120 9 157 13 78 4 158-29 246-11 31-23 90-27 132l-6 76 42-37c58-51 129-69 278-72 106-2 126 0 169 20 27 12 69 44 95 70 38 39 56 50 104 61 72 16 119 59 136 124 21 87 9 183-30 239-24 34-24 73 0 107 37 51 41 104 38 471l-2 355-27 55c-29 60-98 288-98 325 0 13 13 37 29 54 47 50 59 122 37 224-10 45-24 97-32 116-8 18-14 49-14 69 0 64-31 152-65 185-134 133-191 167-280 167-17 0-40 7-52 15-35 24-105 47-145 46-21 0-89-14-152-30-63-17-124-31-134-31-11 0-31 17-47 41-39 56-72 76-150 94-61 15-72 14-123-1-32-9-68-22-82-29-45-24-144-40-225-36-66 2-95-2-159-24-69-22-83-24-109-14-44 19-65 47-84 113-13 45-28 71-59 103-24 23-51 59-60 79-11 23-36 48-66 67-26 17-48 36-48 43 0 26-67 81-113 93-56 14-347 13-400-1z" fill="#ffc106"/><path d="M4417 6108c-54-14-101-65-116-124-7-27-15-90-18-140l-6-91-57-6c-69-6-122-29-165-73-55-55-71-179-37-291 25-85 20-103-54-178-35-37-64-70-64-75s-18-27-40-50-45-60-52-83c-6-23-24-56-39-74-15-17-32-40-38-50-9-16-12-17-33-4-43 27-73 39-108 45-100 17-119 17-175 2l-60-15-33 32c-19 18-49 55-67 83-37 57-76 80-163 95-31 6-91 18-132 28-78 18-85 17-250-14-199-38-216-39-247-18-63 44-158 60-236 40-52-14-61-13-123 5-64 20-69 20-148 5-71-14-87-15-128-2-52 15-94 13-156-9-36-13-51-13-105-2-46 10-80 11-127 4-36-6-76-9-90-7s-59 3-100 3c-86 0-133-18-186-71-40-40-79-155-77-223 3-63-26-156-58-191-38-41-52-103-37-174 10-51 9-59-9-83-12-16-28-26-39-24-64 11-113 4-167-22-67-33-93-65-118-148-23-71-23-116-5-223 8-44 16-107 17-140l3-60-50-6c-27-4-114-12-194-18-80-7-167-17-193-23-63-13-110-59-126-121-14-60-14-374 0-434 12-47 67-113 94-113 8 0 25-21 37-46 12-26 37-58 57-72l36-26v-95c0-80 4-103 22-139 19-35 23-60 25-150 1-59-2-141-6-182-7-64-5-84 13-135 16-43 22-82 21-140-1-135 61-330 130-408 27-31 31-43 26-69-4-19 2-62 15-111 27-99 62-139 141-157 66-16 74-22 82-66 8-42 63-100 104-109 16-3 46-21 67-40 67-62 174-80 274-46 30 11 60 17 67 14 6-2 37 2 68 10l56 15v-29c0-28 18-126 46-248 25-109 78-166 173-186 105-22 134-88 144-323 8-185 19-234 63-277 51-51 97-57 419-53 249 3 284 5 318 22 51 25 75 63 92 142 16 79 34 101 88 109 23 3 82 17 130 31 49 14 98 22 109 19 10-4 51 1 90 10 61 15 76 24 123 71 52 53 55 54 110 54 31 0 86 8 122 17 54 13 75 25 109 59 28 27 45 55 49 78 6 30 12 36 32 36 79 0 178 56 232 131 17 22 48 53 70 69s67 67 100 112c33 46 74 98 91 115 17 18 36 45 42 60 7 16 23 42 35 59 13 17 23 35 23 40s27 40 60 78 60 75 60 81 17 29 38 52c41 44 72 128 72 196 0 26 6 39 20 47 11 6 31 30 45 54 22 38 30 44 70 49 24 4 73 19 107 33 71 30 127 34 209 14s156-2 207 49c145 147 168 189 179 324 3 38 10 67 17 68 6 0 19 2 30 4 10 2 35-7 55-20s55-29 79-35 63-24 89-40c25-16 59-32 76-36 18-4 45-17 62-30 16-12 59-30 93-40 54-15 72-16 120-6 30 6 73 23 94 37 29 19 50 25 95 25 88 0 170 27 214 71 46 46 61 105 57 225-1 49 3 120 9 157 13 78 4 158-29 246-11 31-23 90-27 132l-6 76 42-37c58-51 129-69 278-72 106-2 126 0 169 20 27 12 69 44 95 70 38 39 56 50 104 61 72 16 119 59 136 124 21 87 9 183-30 239-24 34-24 73 0 107 37 51 41 104 38 471l-2 355-27 55c-29 60-98 288-98 325 0 13 13 37 29 54 47 50 59 122 37 224-10 45-24 97-32 116-8 18-14 49-14 69 0 64-31 152-65 185-134 133-191 167-280 167-17 0-40 7-52 15-35 24-105 47-145 46-21 0-89-14-152-30-63-17-124-31-134-31-11 0-31 17-47 41-39 56-72 76-150 94-61 15-72 14-123-1-32-9-68-22-82-29-45-24-144-40-225-36-66 2-95-2-159-24-69-22-83-24-109-14-44 19-65 47-84 113-13 45-28 71-59 103-24 23-51 59-60 79-11 23-36 48-66 67-26 17-48 36-48 43 0 26-67 81-113 93-56 14-347 13-400-1zm321-318c18-11 47-41 65-67 17-26 48-65 69-88 20-22 47-66 61-96 20-45 37-66 83-100 33-23 84-61 114-84s79-54 108-69c56-28 58-28 100 12 57 53 135 89 172 77 11-3 38-21 60-40s50-37 61-40c34-11 75 13 94 55 15 32 26 41 75 59 31 12 62 21 68 21s37-23 68-50c74-65 115-78 202-62 37 7 104 17 150 23 81 10 83 10 130-17 29-17 70-31 105-35 43-5 66-14 85-32 15-14 44-32 64-40 51-21 62-47 48-108-8-34-9-58-2-78 12-33 4-47-40-74-33-20-37-63-14-143 8-27 20-76 26-109 7-33 22-98 36-145 27-99 40-175 59-356 8-72 22-161 31-198 16-63 16-67-2-92-44-61-53-86-47-135 5-38 1-54-17-84-24-40-24-59 12-293 13-85 11-89-87-156-56-38-65-41-141-44-78-4-83-3-115 25-19 16-61 48-94 71-33 22-98 72-145 111-113 95-134 94-215-5-58-71-60-105-10-164 48-58 52-82 25-141-23-48-23-50-7-103 9-29 17-62 17-73 0-12 11-64 25-117 30-116 31-142 5-181-15-23-20-47-20-107 0-88-3-91-83-102-32-5-59-17-81-37-19-16-41-29-50-29-26 0-95 70-119 119-24 50-29 51-134 35-37-5-45-3-74 25-28 27-39 31-88 31-31 0-118-11-195-24-108-19-143-29-162-47-13-12-24-30-24-38 0-9-14-38-30-66-35-60-37-77-9-122 24-39 14-63-29-63-14 0-40-14-62-34-32-29-50-35-136-50-219-38-421-79-455-93-39-15-54-38-63-94-4-20-27-67-53-105-42-60-47-76-48-122 0-42-4-57-21-70-12-9-33-39-47-67-14-27-69-108-122-180-86-115-143-199-198-287-10-15-28-30-42-33s-36-7-50-10c-16-4-32-19-45-46-22-42-51-59-101-59-38 0-58-11-128-68-68-54-75-66-61-92 6-12 10-31 8-43-3-21-8-22-83-22h-80l-91-61c-73-50-101-63-145-68-30-4-76-14-104-21-27-8-126-27-218-44-93-16-175-35-183-41-9-8-14-31-14-64 0-72-31-100-135-125-67-16-125-55-125-84-1-38-23-57-68-57-37 0-42 3-47 28-3 15-15 54-26 87-10 33-33 143-50 245-16 102-35 201-41 220-13 42-98 133-153 166-98 57-127 125-106 248 11 69 11 79-7 118-41 91-144 177-196 164-12-3-42-21-67-41-24-19-57-37-74-40-29-6-127 12-208 37-29 9-40 9-49 0-16-16-61-15-76 0-7 7-12 33-12 58 0 52-7 61-117 143-53 41-64 54-81 106-12 34-40 83-67 116-69 85-81 122-94 291-5 61-17 137-26 168-14 49-15 70-6 132 11 74 9 100-14 189-7 28-13 93-13 145v95l45 44c44 42 45 45 38 90-11 80-33 112-117 166-58 38-82 61-100 95-15 29-37 52-63 67-59 32-65 40-65 84 0 31 7 47 28 68 23 23 47 31 169 54 78 15 168 30 200 33 64 6 59 9 235-116 61-44 65-45 138-45 109 0 140 18 185 107 24 49 35 84 35 115 0 49-5 55-117 148-67 54-109 73-166 74-55 1-103 25-121 60-17 31-23 132-12 169 5 15 26 28 68 43 51 19 69 33 115 88 103 125 152 201 158 250 3 25 15 66 26 91 12 24 23 69 26 100 6 61 52 172 85 208 27 28 120 56 164 49 32-5 176-98 204-132 17-20 53-19 73 3 8 9 23 36 32 60 11 27 25 44 39 47 146 33 181 33 248-1 52-26 59-27 158-9 30 6 41 2 75-25 49-39 59-38 313 14 96 20 184 36 196 36 13 0 43-13 67-30 54-36 73-37 120-4 45 31 71 22 88-29 8-23 32-49 79-84 120-90 164-105 259-83 37 9 49 6 108-22l68-31 116 17c64 10 143 22 176 26 71 10 93 31 70 66-20 31-19 47 6 70 12 10 30 37 40 59 11 23 32 48 47 57 19 11 31 30 40 62 7 29 21 51 37 62 14 9 33 30 41 46 8 15 31 36 51 46 36 16 38 20 50 92 37 218 36 199 13 237-39 66-17 100 46 69 52-24 87-20 135 17 51 39 86 104 99 182 11 68 19 78 80 99 57 19 49 19 88-4z" fill="#ffe8a1"/><path d="M4417 6108c-54-14-101-65-116-124-7-27-15-90-18-140l-6-91-57-6c-69-6-122-29-165-73-55-55-71-179-37-291 25-85 20-103-54-178-35-37-64-70-64-75s-18-27-40-50-45-60-52-83c-6-23-24-56-39-74-15-17-32-40-38-50-9-16-12-17-33-4-43 27-73 39-108 45-100 17-119 17-175 2l-60-15-33 32c-19 18-49 55-67 83-37 57-76 80-163 95-31 6-91 18-132 28-78 18-85 17-250-14-199-38-216-39-247-18-63 44-158 60-236 40-52-14-61-13-123 5-64 20-69 20-148 5-71-14-87-15-128-2-52 15-94 13-156-9-36-13-51-13-105-2-46 10-80 11-127 4-36-6-76-9-90-7s-59 3-100 3c-86 0-133-18-186-71-40-40-79-155-77-223 3-63-26-156-58-191-38-41-52-103-37-174 10-51 9-59-9-83-12-16-28-26-39-24-64 11-113 4-167-22-67-33-93-65-118-148-23-71-23-116-5-223 8-44 16-107 17-140l3-60-50-6c-27-4-114-12-194-18-80-7-167-17-193-23-63-13-110-59-126-121-14-60-14-374 0-434 12-47 67-113 94-113 8 0 25-21 37-46 12-26 37-58 57-72l36-26v-95c0-80 4-103 22-139 19-35 23-60 25-150 1-59-2-141-6-182-7-64-5-84 13-135 16-43 22-82 21-140-1-135 61-330 130-408 27-31 31-43 26-69-4-19 2-62 15-111 27-99 62-139 141-157 66-16 74-22 82-66 8-42 63-100 104-109 16-3 46-21 67-40 67-62 174-80 274-46 30 11 60 17 67 14 6-2 37 2 68 10l56 15v-29c0-28 18-126 46-248 25-109 78-166 173-186 105-22 134-88 144-323 8-185 19-234 63-277 51-51 97-57 419-53 249 3 284 5 318 22 51 25 75 63 92 142 16 79 34 101 88 109 23 3 82 17 130 31 49 14 98 22 109 19 10-4 51 1 90 10 61 15 76 24 123 71 52 53 55 54 110 54 31 0 86 8 122 17 54 13 75 25 109 59 28 27 45 55 49 78 6 30 12 36 32 36 79 0 178 56 232 131 17 22 48 53 70 69s67 67 100 112c33 46 74 98 91 115 17 18 36 45 42 60 7 16 23 42 35 59 13 17 23 35 23 40s27 40 60 78 60 75 60 81 17 29 38 52c41 44 72 128 72 196 0 26 6 39 20 47 11 6 31 30 45 54 22 38 30 44 70 49 24 4 73 19 107 33 71 30 127 34 209 14s156-2 207 49c145 147 168 189 179 324 3 38 10 67 17 68 6 0 19 2 30 4 10 2 35-7 55-20s55-29 79-35 63-24 89-40c25-16 59-32 76-36 18-4 45-17 62-30 16-12 59-30 93-40 54-15 72-16 120-6 30 6 73 23 94 37 29 19 50 25 95 25 88 0 170 27 214 71 46 46 61 105 57 225-1 49 3 120 9 157 13 78 4 158-29 246-11 31-23 90-27 132l-6 76 42-37c58-51 129-69 278-72 106-2 126 0 169 20 27 12 69 44 95 70 38 39 56 50 104 61 72 16 119 59 136 124 21 87 9 183-30 239-24 34-24 73 0 107 37 51 41 104 38 471l-2 355-27 55c-29 60-98 288-98 325 0 13 13 37 29 54 47 50 59 122 37 224-10 45-24 97-32 116-8 18-14 49-14 69 0 64-31 152-65 185-134 133-191 167-280 167-17 0-40 7-52 15-35 24-105 47-145 46-21 0-89-14-152-30-63-17-124-31-134-31-11 0-31 17-47 41-39 56-72 76-150 94-61 15-72 14-123-1-32-9-68-22-82-29-45-24-144-40-225-36-66 2-95-2-159-24-69-22-83-24-109-14-44 19-65 47-84 113-13 45-28 71-59 103-24 23-51 59-60 79-11 23-36 48-66 67-26 17-48 36-48 43 0 26-67 81-113 93-56 14-347 13-400-1zm208-260c17 0 49 2 72 3 38 3 47-1 84-36 22-22 58-65 79-95 21-31 46-62 55-70s30-41 46-75c25-52 39-68 106-114 43-30 89-65 103-77s35-25 47-28c25-8 118 14 184 43 41 18 78 25 121 22 9-1 38-19 64-42 53-46 75-47 87-4 15 50 23 60 53 68 16 5 50 15 75 23 75 23 98 19 138-25 50-54 99-81 146-81 22 0 98 9 168 21l129 21 60-31c56-30 65-32 128-25 67 6 68 6 86-22 10-16 37-47 61-70 42-40 43-42 43-106 0-36 7-84 15-107 18-53 9-77-40-105-57-31-56-37 23-321 37-134 60-263 72-400 6-67 15-137 20-155 13-44 37-80 55-80 11 0 15-12 15-48v-48l-47-15c-61-18-71-35-55-95 12-44 11-48-18-93-20-30-29-53-25-66 5-18 13-83 32-255 6-63 13-54-117-153l-55-42h-202l-44 36c-24 20-64 49-89 64-25 16-83 59-130 97-47 37-93 68-102 68-10 0-38-19-63-43-50-49-60-91-26-121 10-9 26-35 36-57 17-36 17-47 6-104-9-46-10-77-3-117 6-29 14-75 17-101 4-27 17-77 31-113 30-81 30-112-1-158-37-54-39-78-16-131 42-96 24-120-84-117-70 2-75 1-115-33-49-41-63-43-110-13-19 13-53 32-74 43-39 19-49 31-60 68-4 14-18 17-79 17-62 0-77 3-93 21-43 47-64 51-192 34-169-22-186-28-207-73-10-20-28-52-41-71l-23-34 20-38c27-54 25-94-7-116-14-10-45-35-69-56-40-35-46-37-111-37-38 0-123-12-189-26-110-23-279-54-298-54-18 0-57-51-57-74 0-14-23-55-56-98-59-77-57-72-38-167 6-30 2-37-36-75-49-48-218-285-345-486-33-52-49-67-92-86-37-17-61-36-80-65-32-49-61-62-103-48-44 16-76 4-120-43-32-35-39-50-42-95-7-78-21-89-119-86-91 3-110-4-203-75-52-40-66-46-130-52-39-4-84-13-100-19-16-7-92-23-169-36-154-26-166-33-185-100-27-92-89-145-172-145-51 0-80-15-80-40 0-48-6-50-126-50h-113l-6 38c-4 20-13 69-20 107-7 39-16 99-20 135-10 102-45 261-66 302-22 44-72 86-151 128-68 37-81 53-104 138-15 54-16 72-6 121 18 85 15 119-14 168-26 46-95 103-123 103-9 0-43-19-76-41l-60-41-89 6c-88 6-89 6-123-24-40-35-66-33-97 6-10 14-36 34-57 45-39 20-43 29-40 89 3 36-28 71-109 124-72 48-71 47-94 148-4 15-26 50-51 78s-51 63-59 78c-27 52-46 150-46 236 0 66-6 103-25 157-22 63-23 76-14 127 6 31 8 84 5 117-4 33-11 105-16 160-6 55-13 121-16 146-7 52 9 87 50 108 30 16 49 56 40 85-11 36-35 56-120 95-81 38-83 40-96 87-10 37-22 54-48 71-92 58-97 65-97 149l-1 76 42 18c22 10 104 28 181 40s166 28 197 36c97 24 105 21 224-66 60-44 127-85 148-91 85-23 147 16 201 124 33 69 25 94-48 141-30 19-58 39-62 45-14 24-70 43-147 51-122 12-140 37-154 216-8 117-5 120 111 139 49 8 100 59 180 177 49 74 55 88 55 135 0 39 6 61 25 89 14 21 25 51 25 71 0 18 9 59 21 91 11 31 27 78 35 103 19 61 47 85 124 103 97 23 151 21 191-9 136-99 155-103 179-37 26 69 39 77 99 61 41-10 61-11 96-1 67 18 106 15 150-13 49-30 102-32 155-5 54 28 64 26 100-19 17-22 40-43 50-46 11-3 52 3 92 14s140 32 222 45c128 22 152 24 180 12 17-7 37-20 45-29 18-22 28-21 77 5 52 27 85 19 113-26 35-55 145-152 196-172 40-15 54-16 91-6 67 18 114 14 159-13 51-32 148-34 255-6 76 20 90 31 90 68 0 13 15 40 34 60 18 21 41 54 51 73 9 19 28 46 41 60 12 14 30 41 38 60s49 70 91 113c84 86 88 94 100 229 7 69 5 80-14 104-26 34-27 78-1 104 24 24 48 25 111 6 43-13 49-13 77 4 17 11 44 38 59 61 23 35 28 53 27 98-1 31-5 70-9 87-4 19-2 40 5 54 10 19 17 21 48 15 21-3 51-6 67-7z" fill="#fffdf7"/></svg>