<svg version="1" xmlns="http://www.w3.org/2000/svg" width="108" height="89" viewBox="0 0 1080 890"><path d="M500 875c-8-10-9-26-3-57l10-43-43 3c-46 4-84-11-84-33 0-8-12-17-27-20-43-9-55-19-79-61-22-39-92-114-107-114S33 491 23 478c-6-7-11-22-12-33-12-131 17-256 56-241 8 4 17-4 23-19 5-14 17-28 25-30 8-3 23-8 33-12 9-4 26-7 37-7 13-1 22-10 25-26 3-14 17-44 32-67 25-38 31-42 70-41 24 0 50 6 58 13s28 15 44 19 40 16 54 26c18 15 29 17 42 10 14-8 25-4 47 14 33 28 67 34 106 18 16-7 41-12 56-12 66 0 139 115 106 167-8 12-15 24-15 26s27 7 61 10c49 4 67 11 90 33 16 15 27 30 24 33-3 2 5 15 17 28 12 12 18 26 14 30-3 4 8 12 26 17 48 16 48 42-1 85-33 30-39 41-35 63 4 18 18 32 40 43 29 13 34 21 34 49 0 31-24 66-47 66-5 0-15 12-22 28-8 15-17 34-21 42s-16 17-26 19-25 8-33 14c-15 13-61 10-99-4-18-7-34-5-58 6-18 8-54 15-81 14-87-1-100 1-113 16-16 19-64 19-80 0z" fill="#ffc003"/><path d="M500 875c-8-10-9-26-3-57l10-43-43 3c-46 4-84-11-84-33 0-8-12-17-27-20-43-9-55-19-79-61-22-39-92-114-107-114S33 491 23 478c-6-7-11-22-12-33-12-131 17-256 56-241 8 4 17-4 23-19 5-14 17-28 25-30 8-3 23-8 33-12 9-4 26-7 37-7 13-1 22-10 25-26 3-14 17-44 32-67 25-38 31-42 70-41 24 0 50 6 58 13s28 15 44 19 40 16 54 26c18 15 29 17 42 10 14-8 25-4 47 14 33 28 67 34 106 18 16-7 41-12 56-12 66 0 139 115 106 167-8 12-15 24-15 26s27 7 61 10c49 4 67 11 90 33 16 15 27 30 24 33-3 2 5 15 17 28 12 12 18 26 14 30-3 4 8 12 26 17 48 16 48 42-1 85-33 30-39 41-35 63 4 18 18 32 40 43 29 13 34 21 34 49 0 31-24 66-47 66-5 0-15 12-22 28-8 15-17 34-21 42s-16 17-26 19-25 8-33 14c-15 13-61 10-99-4-18-7-34-5-58 6-18 8-54 15-81 14-87-1-100 1-113 16-16 19-64 19-80 0zm77-30c5-4 1-5-7 0-11 6-12 5-5-3 6-6 51-13 101-14 69-3 95-8 108-21 15-14 21-15 44-4 54 26 162 3 162-35 0-23 46-72 60-63s12-39-2-53c-7-7-20-12-30-12-18 0-27-13-32-44-1-8-5-18-8-22-11-11 12-49 43-69 41-28 45-45 9-45-17 0-30-5-30-10 0-6-7-27-17-48-9-20-16-40-15-44 3-13-68-38-110-38-70 0-96-32-57-71 19-19 19-20 0-57-30-58-53-74-95-67-22 5-38 14-41 26-8 23-21 25-29 4-3-8-16-15-29-15s-32-9-42-20c-11-12-29-19-51-18-19 1-42-6-51-14-10-9-35-21-55-27-21-7-40-17-43-22-4-5-19-9-34-9-31 0-81 53-81 87 0 10-4 23-8 30-8 12-86 34-97 27-3-2-3-1 0 2 2 4-2 13-10 20-7 8-15 18-17 24s-13 12-26 13c-12 0-22 7-22 15 0 7-7 27-16 43-8 17-12 38-8 47 3 10 6 36 5 60-2 36 2 47 28 72 18 15 44 31 60 35 15 3 52 21 80 40 48 30 85 59 52 40-9-5-7 1 4 19 10 14 21 26 26 26s11 11 15 25c6 24 11 27 66 39 15 3 30 15 33 26 8 26 50 36 89 22 23-9 32-9 37 0 10 15 6 89-5 106-6 10-1 12 18 10 14-2 29-8 33-13z" fill="#ffe8a0"/><path d="M500 875c-8-10-9-26-3-57l10-43-43 3c-46 4-84-11-84-33 0-8-12-17-27-20-43-9-55-19-79-61-22-39-92-114-107-114S33 491 23 478c-6-7-11-22-12-33-12-131 17-256 56-241 8 4 17-4 23-19 5-14 17-28 25-30 8-3 23-8 33-12 9-4 26-7 37-7 13-1 22-10 25-26 3-14 17-44 32-67 25-38 31-42 70-41 24 0 50 6 58 13s28 15 44 19 40 16 54 26c18 15 29 17 42 10 14-8 25-4 47 14 33 28 67 34 106 18 16-7 41-12 56-12 66 0 139 115 106 167-8 12-15 24-15 26s27 7 61 10c49 4 67 11 90 33 16 15 27 30 24 33-3 2 5 15 17 28 12 12 18 26 14 30-3 4 8 12 26 17 48 16 48 42-1 85-33 30-39 41-35 63 4 18 18 32 40 43 29 13 34 21 34 49 0 31-24 66-47 66-5 0-15 12-22 28-8 15-17 34-21 42s-16 17-26 19-25 8-33 14c-15 13-61 10-99-4-18-7-34-5-58 6-18 8-54 15-81 14-87-1-100 1-113 16-16 19-64 19-80 0zm72-23c11-15 26-19 83-18 39 1 76-3 83-8s15-6 19-2c3 3 14-1 24-10 17-15 21-15 59 0 30 12 40 13 41 3 0-9 2-9 6 1 2 6 10 12 17 12s18-6 25-12c6-7 17-13 23-13s14-7 18-15c25-53 40-74 55-76 21-3 21-3 29-37 3-15 3-27-1-26-16 3-73-26-71-36 1-5-2-23-7-38-8-29-3-34 66-91l23-19-34-12c-21-7-36-20-39-31-2-10-8-25-14-33-6-7-16-23-22-34-12-25-87-50-121-41-40 10-76-48-39-62 16-6 17-54 1-54-5 0-6-3-3-6 4-4-1-19-10-35-16-27-47-47-70-43-7 1-17 2-21 3-12 1-52 37-49 42 1 2-3-1-9-8s-22-13-36-13c-16 0-29-9-37-23-11-20-20-24-58-23-33 1-47-4-54-16-6-10-20-18-33-18-12 0-31-7-42-15-10-8-36-15-56-15-33 0-40 4-63 43-14 24-25 53-25 65 0 18-6 22-34 22-19 0-38 5-41 10-4 6-10 8-15 5s-16 8-25 25-19 29-23 26c-29-18-60 63-57 149 3 96 3 95 19 95 7 0 19 7 26 15s31 20 54 27c22 7 46 17 52 23 32 28 54 44 54 38 0-10 64 90 65 102 0 5 18 13 39 17 38 8 69 35 60 50-10 15 84 12 102-3 6-5 14-6 17-2 10 10 8 86-3 103-7 11-5 17 8 22 26 10 30 9 44-10z" fill="#fffcf5"/></svg>