<svg version="1" xmlns="http://www.w3.org/2000/svg" width="1562" height="1600" viewBox="0 0 15620 16000"><path d="M8835 15991c-11-5-29-18-40-28s-47-25-80-32-69-21-80-31-45-21-75-24c-74-9-77-9-135 4-27 6-97 13-155 16-58 2-130 6-160 10-97 11-231-43-266-106-22-40-87-107-111-114-12-4-32-20-43-37-17-24-25-27-40-19-27 14-89 12-146-5-27-8-50-15-51-15-2 0-3 7-3 15s-4 15-9 15-17 8-26 17c-28 27-113 29-160 4-32-17-57-21-132-21-50 0-103-4-116-9-30-12-97-79-97-98 0-9-17-13-62-13-48 0-77-7-123-28-35-17-88-32-125-36-36-4-76-15-90-23-14-9-42-20-64-24-40-7-41-6-190 77-16 9-43 29-60 44-18 18-53 34-92 44-60 15-65 15-146-8-46-13-110-29-143-36-107-22-145-69-145-177 0-40-4-73-8-73-5 0-20-12-34-27-14-16-46-50-71-76-39-41-47-56-53-103-5-47-10-57-32-65-14-5-41-25-61-44-19-19-40-35-46-36-5 0-21-14-35-31-22-28-24-40-23-117 0-47 6-98 12-114 9-24 7-33-21-72-29-41-31-49-30-126 1-68-2-84-18-98-24-21-60-86-60-111 0-10-7-26-16-35-10-9-21-33-25-53-27-122-34-141-69-168-54-42-80-101-80-182 0-38-3-72-7-75-3-4-15 1-25 10-44 40-177 64-243 44-133-40-208-61-222-61-28 0-93-81-109-136-8-28-12-59-8-68s0-24-9-34c-27-31-47-93-47-149 0-66-23-92-99-112-46-12-103-52-113-80-3-11-118-32-118-22 0 3-23 17-50 29-28 13-56 32-63 43-6 10-17 19-22 19-6 0-19 18-29 40-18 41-68 90-92 90-9 0-14 12-14 36 0 20-9 53-19 73-31 58-34 72-35 146-1 100-24 141-101 182-55 30-111 57-176 85-22 10-27 20-36 82-10 66-47 167-65 174-4 2-8 9-8 16 0 20-57 56-103 65-23 4-60 20-81 34-21 15-42 27-46 27s-13 11-20 25c-8 14-29 35-48 47-31 19-43 20-146 15-144-9-199-27-237-80-16-22-29-51-29-64 0-22-3-23-37-17-21 4-50 13-64 20-50 25-106 28-176 9l-67-18-14 21c-8 12-21 22-29 22-7 0-17 8-20 18-4 9-13 23-20 30s-13 23-13 35c0 37-48 97-93 116-79 33-91 33-205-4-60-19-127-35-149-35-45 0-103-17-103-31 0-5-4-9-10-9-11 0-110-98-110-110 0-4-18-30-39-58-46-57-71-124-71-187s30-235 47-269c8-16 19-74 24-130 8-94 34-196 50-196 4 0 13-33 19-72 7-40 19-83 26-95 18-29 59-162 73-238 30-161 40-203 55-232 22-43 21-44-21-73-20-13-42-40-50-60-8-19-26-50-40-68-34-45-56-125-57-204 0-55-3-68-16-68-9 0-31-16-50-35-35-36-35-36-35-133 0-73 6-113 22-162 12-36 24-79 28-97 3-17 13-37 21-44 23-19 16-38-18-44-39-7-114-75-144-131-29-52-46-153-33-196 5-18 9-58 9-89 0-40 5-63 19-81 11-13 20-30 22-38 5-25-12-113-27-142-8-15-14-36-14-47s-14-40-30-65c-30-43-32-45-98-52-203-21-302-98-302-234 0-41 6-73 20-100 11-22 20-56 20-77 1-21 7-56 15-78 16-44 9-55-33-55-25 0-63-17-74-33-3-6-50-14-105-18-54-5-107-10-118-13-63-14-81-20-95-32-8-7-43-17-77-23-34-5-76-17-93-26-18-9-58-19-89-21-79-7-155-40-186-82-17-23-20-43-20-143 0-97 3-118 17-133 10-10 18-21 18-26s7-10 17-12c11-2 23-29 40-88 47-171 63-242 63-287 0-73 20-121 72-175 51-53 59-73 30-80-21-6-52-92-52-143 0-18 9-61 20-95 22-69 24-61-34-134-66-84-71-303-9-396 27-41 22-46-58-55-62-7-102-35-120-83-12-30-12-414 0-444 13-35 61-78 87-78 13 0 24-4 24-9 0-12 56-31 90-31 15 0 38-8 51-18s50-27 82-37l59-20-8-45c-15-81-7-171 28-338 10-46 9-57-5-82-10-16-17-49-17-78 0-28-5-52-10-54-6-2-15-31-20-65-11-63-1-162 20-218 12-30 4-69-16-86-8-6-14-22-14-35s-8-25-19-29c-10-3-22-13-25-23-4-9-13-28-21-42-7-14-18-62-24-107-6-46-20-101-31-123-27-52-34-119-22-193 6-38 6-71-2-98-8-33-7-50 9-97 27-78 63-97 190-105 52-3 102-10 111-15 10-5 24-29 33-53 13-34 25-48 56-63 22-11 55-20 75-21 36-1 48-5 115-36 22-9 58-19 80-20 22-2 54-9 72-16s48-13 66-13c31 0 35-4 41-31 3-17 6-49 6-70 0-36 16-88 31-99 4-3 8-37 11-76 2-50 9-76 21-88 9-10 17-21 17-24 0-14 81-42 120-42 24 0 42-5 44-12 34-118 43-148 58-178 10-19 18-45 18-58 0-27 38-78 79-104 18-12 46-18 91-18 49 0 71-5 90-20 14-11 30-20 35-20 6 0 21-9 34-19l24-18-23-37c-16-26-24-57-26-104-3-37-9-115-14-174-8-94-6-116 11-175 12-42 15-69 9-71s-23-23-40-47c-16-23-46-50-67-60-46-22-70-50-79-92-3-18-12-33-20-33-17 0-43-60-51-117-5-34-13-47-48-72-28-20-49-46-63-79-12-28-28-52-36-55s-22-30-32-60c-15-50-16-60-1-131 12-63 13-84 3-119-19-64-20-359-2-437 8-35 19-67 24-72s7-41 5-81c-9-138 41-252 125-289 83-36 256-19 285 29 13 21 23 16 93-37 36-27 77-53 91-56 14-4 76-4 137 0 99 6 115 9 150 34 29 21 74 84 92 130 1 1 21-9 45-23 26-15 60-25 84-25 39 0 85-10 209-44 50-14 68-15 113-5 42 10 64 9 109-1 45-11 64-11 103-1s61 10 109 0c55-12 68-10 173 15 63 16 132 31 154 33 30 4 49 15 74 42 46 49 53 72 55 173 2 116 10 124 90 98 91-31 213-23 257 16 15 13 22 11 64-17 39-27 61-33 129-40 44-4 92-11 105-17 17-6 39-5 66 3l41 13-4-37c-3-20-9-39-13-42-5-3-14-32-20-65-6-32-14-78-20-102-13-62-11-103 10-190 10-42 25-103 32-135 11-50 19-63 60-98 26-21 50-39 53-39 4 0 15-8 26-18 29-26 131-47 178-35 23 6 48 6 63 1 13-5 44-6 69-2s54 6 64 5c11-2 48 0 82 4 66 7 106 33 125 82 5 13 22 26 44 32 33 9 41 6 93-28 77-51 138-67 196-52 25 6 76 11 114 11 83 0 148 29 203 92l35 40 95 2c116 2 163 22 193 81 18 34 21 58 21 162 0 112 2 123 23 145 12 13 22 32 22 41 0 37 22 65 56 70 38 6 94 44 94 64 0 7 4 13 9 13s16 18 25 40 20 40 25 40 19 30 31 66c26 78 23 125-15 207-28 63-34 151-11 164 13 8 46 90 46 116 0 7 24 21 53 32 42 17 58 30 84 70 45 69 76 114 89 128 5 7 13 20 17 30 3 9 13 17 21 17 13 0 56 44 81 82 6 9 29 19 53 22 39 6 42 5 42-16 0-13-7-41-15-63-17-48-18-108-2-155 10-30 9-41-5-70-24-48-41-145-34-194 3-23 10-85 16-139 7-70 15-107 30-127 11-15 20-33 20-39s4-11 9-11 17-7 26-16c9-10 47-21 89-27 75-11 117-5 236 36 25 9 81 24 125 33 93 20 142 56 147 108 2 23 9 32 26 34 20 3 22-1 22-40 0-73 25-139 70-183 22-21 40-45 40-52s4-13 8-13c5 0 19-9 32-20s31-20 40-20 25-8 34-19c35-39 225-69 316-50 122 25 135 27 140 22 3-2 5-30 6-61 1-84 28-157 68-182 19-11 43-20 55-20 11 0 21-4 21-9s11-12 25-15c39-10 27-66-13-66-44 0-143-77-194-150-26-36-24-163 2-230 11-28 20-63 20-77 0-30 43-108 63-116 8-3 25-26 37-52s28-49 35-51c10-4 11-14 3-42-6-20-7-68-4-106 6-74 6-79 4-136-1-58 38-127 89-157 40-23 51-25 108-20 36 4 79 14 96 23 47 24 212 23 259-1 35-18 76-64 92-101 24-57 106-106 198-119 25-4 69-14 97-23 42-12 62-13 99-5 36 8 57 8 88-2 23-8 77-21 121-30s100-20 125-26c46-11 153-5 193 10 12 5 38 23 56 40 36 34 44 31 58-19 3-14 12-31 20-38 7-8 11-18 7-23-3-5 2-33 10-62 11-37 25-60 46-76 35-26 115-52 157-51 41 1 131-17 182-35 56-20 226-31 272-17 19 5 69 16 111 23 88 15 116 35 182 129 32 44 41 68 49 127 6 40 15 73 19 73s17-8 28-17c29-25 100-44 139-36 24 4 37 2 45-9 29-39 187-64 236-38 10 5 48 14 84 19 73 11 109 33 135 83 9 18 24 34 33 36s54-23 99-54c46-31 102-66 126-76s43-25 43-32 11-25 25-40c38-41 57-92 65-177 10-108 32-148 101-181 46-22 57-32 62-57 13-66 45-89 157-115 14-3 57-35 95-71 39-36 73-65 77-65s28-16 54-35c25-19 52-35 59-35 8 0 25-11 39-25s31-25 39-25 19-17 26-37c21-71 42-78 246-81 99-2 194-1 211 3 18 3 47 21 65 40 22 23 43 35 61 35 15 0 56 7 92 15 36 9 77 13 91 9 59-15 175 40 175 82 0 7 10 18 23 27 13 8 32 34 42 58 11 24 26 49 35 56 13 10 36 51 74 133 14 30 64 40 78 16 15-27 90-59 140-60l48-1v-60c0-34 7-71 15-85s19-35 24-47c6-13 17-23 26-23 8 0 15-4 15-9s13-12 30-16c16-3 41-16 56-28 37-29 126-35 179-12 22 10 77 21 122 25 53 4 87 12 97 22 9 9 19 18 24 20 5 1 21 29 35 60 22 46 34 59 62 69 19 7 35 17 35 21s6 8 13 8c8 0 22 9 32 20 13 14 31 20 60 20 49 0 99 15 137 42 25 17 45 64 62 140 3 15 12 33 19 40 23 26 57 78 67 103 5 14 15 25 22 26 28 1 55 55 66 128 6 41 9 78 6 82-2 4-7 70-9 146-5 124-8 141-29 174-31 46-83 71-152 71-30 0-54 5-54 9 0 5-19 28-41 51-43 44-62 90-75 183-5 37-17 62-45 96-33 40-47 48-98 60-57 12-59 14-65 48-3 20-6 53-6 73 0 45-28 103-55 116-19 8-19 9 3 28 12 10 22 24 22 31s4 13 9 13c17 0 35 74 34 143-1 65 0 69 25 79 32 12 88 26 157 37 28 5 83 21 124 35 49 17 96 26 135 26 77 0 153 34 187 81 12 19 26 36 29 39 11 8 33 127 26 138-3 6-1 12 5 14 7 2 14 30 17 61 3 41 9 57 19 57 8 0 17 9 20 20 3 12 17 23 32 26 48 9 91 37 112 71 19 30 20 46 17 192l-3 159-32 31c-18 17-37 31-41 31-5 0-16 17-26 38-14 28-18 60-17 136 1 111-11 141-71 186-30 22-41 24-160 24-123 1-128 2-128 22 0 24-41 69-84 91-53 28-87 33-133 21-37-9-49-8-78 8-31 16-55 50-55 76 0 6-12 23-27 37-26 24-28 32-28 106-1 82-29 227-46 233-16 6-10 17 21 35 42 25 70 120 70 238 0 86-22 211-43 236-14 19-1 43 25 43 36 0 95 48 112 91 9 21 29 53 45 69 21 23 31 47 41 103 16 86 15 351-1 421-19 80-92 136-177 136-12 0-25 8-29 18-8 23-54 72-68 72-7 0-32 16-57 36l-46 35 5 57c8 92-33 161-117 198-19 8-38 20-42 27-7 11-34 12-273 5-27-1-77 1-110 3l-60 4-22 46c-21 45-22 50-8 103 8 32 15 70 15 86 0 30-20 115-39 163-6 16-11 38-11 50 0 34-49 95-94 117-33 16-62 20-133 20-70 0-92 3-96 14-3 8-29 23-57 33-40 14-52 24-56 43-2 14-9 43-15 65-5 22-16 75-24 117-7 42-20 101-29 132l-16 55 40 53c22 29 40 63 40 74 0 12 9 33 20 47s25 48 32 76c6 28 15 51 20 51 4 0 8 5 8 11 0 13 85 99 98 99 5 0 17 11 25 24 9 13 29 38 45 56 31 34 50 116 36 154-5 12 5 29 34 59 31 32 44 57 56 103 23 90 20 134-19 273-19 69-35 133-35 143 0 9-11 52-25 93-13 42-28 113-31 158-14 171-43 227-131 253-45 13-63 14-106 4-29-7-59-19-68-26-8-8-36-17-62-20-37-5-50-3-73 15-15 11-33 21-40 21-8 0-20 16-29 35-16 39-66 68-119 68-18 0-39 10-55 27-33 34-132 57-174 41-43-17-76-13-110 12-29 20-43 22-152 21-91-1-130-5-160-18-61-27-95-36-95-25 0 6 7 24 16 42 32 60 2 339-43 407-15 23-23 50-23 80 0 51-30 157-54 191-9 13-16 32-16 41 0 17-18 57-31 68-3 3-8 13-12 23-3 9-13 17-22 17-11 0-15 11-15 45 0 25-9 63-19 83-11 21-24 63-29 93-10 52-10 55 19 84 16 17 29 36 29 43s6 12 14 12c12 0 35 40 79 137 5 12 19 24 31 27 39 10 70 64 74 131 3 38 11 67 21 80 10 11 24 36 31 55s25 51 40 70c39 52 57 161 41 248-16 86-48 187-68 218-23 36-72 61-133 69-30 4-62 11-71 16-16 8-28 88-34 219-5 112-63 170-181 181-46 5-80 13-90 23-8 9-35 27-59 42-38 22-54 25-120 23-89-2-95 2-95 72 0 44-24 144-40 164-4 6-15 33-24 61-24 72-69 103-165 111-41 3-76 12-82 19-6 8-17 14-23 14s-24 14-40 31-40 35-53 40c-44 16-126 10-168-12-36-20-43-20-95-8-30 8-61 12-68 11-34-8-42 18-42 132 0 106-2 114-32 171l-32 60-3 180c-3 131-8 187-18 209-8 16-15 34-15 40-1 6-9 29-20 51-26 55-25 64 13 80 49 21 76 56 89 118 14 64 0 160-29 204-9 13-19 41-23 61-5 20-15 63-24 95-23 85-21 113 9 121 13 3 44 25 69 49 24 23 63 59 87 80s54 47 66 59c47 46 54 204 13 293-10 22-22 80-28 129-5 48-14 91-19 95-16 11-41 74-51 131-12 62 6 176 29 191 22 13 17 166-8 209-11 19-23 50-26 68-4 18-12 39-19 48-40 49-67 74-78 74-8 0-22 8-33 18-13 12-36 17-78 17-44 0-65 6-88 23-17 12-34 22-40 22-5 0-11 7-15 15-13 35-161 71-267 66l-36-1-7 86c-11 151-49 187-196 189-52 1-103 5-113 9-17 8-114-6-198-29-27-8-52-9-60-4-8 4-37 11-66 15-29 3-53 9-53 13 0 3-15 12-32 19-18 7-48 20-66 28s-55 14-82 14c-37 0-55 6-78 25-17 14-34 25-40 25-5 0-30 16-55 35s-50 35-54 35c-5 0-14 19-21 43-19 67-48 82-167 84-55 2-109-1-120-6z" fill="#fec001"/><path d="M8835 15991c-11-5-29-18-40-28s-47-25-80-32-69-21-80-31-45-21-75-24c-74-9-77-9-135 4-27 6-97 13-155 16-58 2-130 6-160 10-97 11-231-43-266-106-22-40-87-107-111-114-12-4-32-20-43-37-17-24-25-27-40-19-27 14-89 12-146-5-27-8-50-15-51-15-2 0-3 7-3 15s-4 15-9 15-17 8-26 17c-28 27-113 29-160 4-32-17-57-21-132-21-50 0-103-4-116-9-30-12-97-79-97-98 0-9-17-13-62-13-48 0-77-7-123-28-35-17-88-32-125-36-36-4-76-15-90-23-14-9-42-20-64-24-40-7-41-6-190 77-16 9-43 29-60 44-18 18-53 34-92 44-60 15-65 15-146-8-46-13-110-29-143-36-107-22-145-69-145-177 0-40-4-73-8-73-5 0-20-12-34-27-14-16-46-50-71-76-39-41-47-56-53-103-5-47-10-57-32-65-14-5-41-25-61-44-19-19-40-35-46-36-5 0-21-14-35-31-22-28-24-40-23-117 0-47 6-98 12-114 9-24 7-33-21-72-29-41-31-49-30-126 1-68-2-84-18-98-24-21-60-86-60-111 0-10-7-26-16-35-10-9-21-33-25-53-27-122-34-141-69-168-54-42-80-101-80-182 0-38-3-72-7-75-3-4-15 1-25 10-44 40-177 64-243 44-133-40-208-61-222-61-28 0-93-81-109-136-8-28-12-59-8-68s0-24-9-34c-27-31-47-93-47-149 0-66-23-92-99-112-46-12-103-52-113-80-3-11-118-32-118-22 0 3-23 17-50 29-28 13-56 32-63 43-6 10-17 19-22 19-6 0-19 18-29 40-18 41-68 90-92 90-9 0-14 12-14 36 0 20-9 53-19 73-31 58-34 72-35 146-1 100-24 141-101 182-55 30-111 57-176 85-22 10-27 20-36 82-10 66-47 167-65 174-4 2-8 9-8 16 0 20-57 56-103 65-23 4-60 20-81 34-21 15-42 27-46 27s-13 11-20 25c-8 14-29 35-48 47-31 19-43 20-146 15-144-9-199-27-237-80-16-22-29-51-29-64 0-22-3-23-37-17-21 4-50 13-64 20-50 25-106 28-176 9l-67-18-14 21c-8 12-21 22-29 22-7 0-17 8-20 18-4 9-13 23-20 30s-13 23-13 35c0 37-48 97-93 116-79 33-91 33-205-4-60-19-127-35-149-35-45 0-103-17-103-31 0-5-4-9-10-9-11 0-110-98-110-110 0-4-18-30-39-58-46-57-71-124-71-187s30-235 47-269c8-16 19-74 24-130 8-94 34-196 50-196 4 0 13-33 19-72 7-40 19-83 26-95 18-29 59-162 73-238 30-161 40-203 55-232 22-43 21-44-21-73-20-13-42-40-50-60-8-19-26-50-40-68-34-45-56-125-57-204 0-55-3-68-16-68-9 0-31-16-50-35-35-36-35-36-35-133 0-73 6-113 22-162 12-36 24-79 28-97 3-17 13-37 21-44 23-19 16-38-18-44-39-7-114-75-144-131-29-52-46-153-33-196 5-18 9-58 9-89 0-40 5-63 19-81 11-13 20-30 22-38 5-25-12-113-27-142-8-15-14-36-14-47s-14-40-30-65c-30-43-32-45-98-52-203-21-302-98-302-234 0-41 6-73 20-100 11-22 20-56 20-77 1-21 7-56 15-78 16-44 9-55-33-55-25 0-63-17-74-33-3-6-50-14-105-18-54-5-107-10-118-13-63-14-81-20-95-32-8-7-43-17-77-23-34-5-76-17-93-26-18-9-58-19-89-21-79-7-155-40-186-82-17-23-20-43-20-143 0-97 3-118 17-133 10-10 18-21 18-26s7-10 17-12c11-2 23-29 40-88 47-171 63-242 63-287 0-73 20-121 72-175 51-53 59-73 30-80-21-6-52-92-52-143 0-18 9-61 20-95 22-69 24-61-34-134-66-84-71-303-9-396 27-41 22-46-58-55-62-7-102-35-120-83-12-30-12-414 0-444 13-35 61-78 87-78 13 0 24-4 24-9 0-12 56-31 90-31 15 0 38-8 51-18s50-27 82-37l59-20-8-45c-15-81-7-171 28-338 10-46 9-57-5-82-10-16-17-49-17-78 0-28-5-52-10-54-6-2-15-31-20-65-11-63-1-162 20-218 12-30 4-69-16-86-8-6-14-22-14-35s-8-25-19-29c-10-3-22-13-25-23-4-9-13-28-21-42-7-14-18-62-24-107-6-46-20-101-31-123-27-52-34-119-22-193 6-38 6-71-2-98-8-33-7-50 9-97 27-78 63-97 190-105 52-3 102-10 111-15 10-5 24-29 33-53 13-34 25-48 56-63 22-11 55-20 75-21 36-1 48-5 115-36 22-9 58-19 80-20 22-2 54-9 72-16s48-13 66-13c31 0 35-4 41-31 3-17 6-49 6-70 0-36 16-88 31-99 4-3 8-37 11-76 2-50 9-76 21-88 9-10 17-21 17-24 0-14 81-42 120-42 24 0 42-5 44-12 34-118 43-148 58-178 10-19 18-45 18-58 0-27 38-78 79-104 18-12 46-18 91-18 49 0 71-5 90-20 14-11 30-20 35-20 6 0 21-9 34-19l24-18-23-37c-16-26-24-57-26-104-3-37-9-115-14-174-8-94-6-116 11-175 12-42 15-69 9-71s-23-23-40-47c-16-23-46-50-67-60-46-22-70-50-79-92-3-18-12-33-20-33-17 0-43-60-51-117-5-34-13-47-48-72-28-20-49-46-63-79-12-28-28-52-36-55s-22-30-32-60c-15-50-16-60-1-131 12-63 13-84 3-119-19-64-20-359-2-437 8-35 19-67 24-72s7-41 5-81c-9-138 41-252 125-289 83-36 256-19 285 29 13 21 23 16 93-37 36-27 77-53 91-56 14-4 76-4 137 0 99 6 115 9 150 34 29 21 74 84 92 130 1 1 21-9 45-23 26-15 60-25 84-25 39 0 85-10 209-44 50-14 68-15 113-5 42 10 64 9 109-1 45-11 64-11 103-1s61 10 109 0c55-12 68-10 173 15 63 16 132 31 154 33 30 4 49 15 74 42 46 49 53 72 55 173 2 116 10 124 90 98 91-31 213-23 257 16 15 13 22 11 64-17 39-27 61-33 129-40 44-4 92-11 105-17 17-6 39-5 66 3l41 13-4-37c-3-20-9-39-13-42-5-3-14-32-20-65-6-32-14-78-20-102-13-62-11-103 10-190 10-42 25-103 32-135 11-50 19-63 60-98 26-21 50-39 53-39 4 0 15-8 26-18 29-26 131-47 178-35 23 6 48 6 63 1 13-5 44-6 69-2s54 6 64 5c11-2 48 0 82 4 66 7 106 33 125 82 5 13 22 26 44 32 33 9 41 6 93-28 77-51 138-67 196-52 25 6 76 11 114 11 83 0 148 29 203 92l35 40 95 2c116 2 163 22 193 81 18 34 21 58 21 162 0 112 2 123 23 145 12 13 22 32 22 41 0 37 22 65 56 70 38 6 94 44 94 64 0 7 4 13 9 13s16 18 25 40 20 40 25 40 19 30 31 66c26 78 23 125-15 207-28 63-34 151-11 164 13 8 46 90 46 116 0 7 24 21 53 32 42 17 58 30 84 70 45 69 76 114 89 128 5 7 13 20 17 30 3 9 13 17 21 17 13 0 56 44 81 82 6 9 29 19 53 22 39 6 42 5 42-16 0-13-7-41-15-63-17-48-18-108-2-155 10-30 9-41-5-70-24-48-41-145-34-194 3-23 10-85 16-139 7-70 15-107 30-127 11-15 20-33 20-39s4-11 9-11 17-7 26-16c9-10 47-21 89-27 75-11 117-5 236 36 25 9 81 24 125 33 93 20 142 56 147 108 2 23 9 32 26 34 20 3 22-1 22-40 0-73 25-139 70-183 22-21 40-45 40-52s4-13 8-13c5 0 19-9 32-20s31-20 40-20 25-8 34-19c35-39 225-69 316-50 122 25 135 27 140 22 3-2 5-30 6-61 1-84 28-157 68-182 19-11 43-20 55-20 11 0 21-4 21-9s11-12 25-15c39-10 27-66-13-66-44 0-143-77-194-150-26-36-24-163 2-230 11-28 20-63 20-77 0-30 43-108 63-116 8-3 25-26 37-52s28-49 35-51c10-4 11-14 3-42-6-20-7-68-4-106 6-74 6-79 4-136-1-58 38-127 89-157 40-23 51-25 108-20 36 4 79 14 96 23 47 24 212 23 259-1 35-18 76-64 92-101 24-57 106-106 198-119 25-4 69-14 97-23 42-12 62-13 99-5 36 8 57 8 88-2 23-8 77-21 121-30s100-20 125-26c46-11 153-5 193 10 12 5 38 23 56 40 36 34 44 31 58-19 3-14 12-31 20-38 7-8 11-18 7-23-3-5 2-33 10-62 11-37 25-60 46-76 35-26 115-52 157-51 41 1 131-17 182-35 56-20 226-31 272-17 19 5 69 16 111 23 88 15 116 35 182 129 32 44 41 68 49 127 6 40 15 73 19 73s17-8 28-17c29-25 100-44 139-36 24 4 37 2 45-9 29-39 187-64 236-38 10 5 48 14 84 19 73 11 109 33 135 83 9 18 24 34 33 36s54-23 99-54c46-31 102-66 126-76s43-25 43-32 11-25 25-40c38-41 57-92 65-177 10-108 32-148 101-181 46-22 57-32 62-57 13-66 45-89 157-115 14-3 57-35 95-71 39-36 73-65 77-65s28-16 54-35c25-19 52-35 59-35 8 0 25-11 39-25s31-25 39-25 19-17 26-37c21-71 42-78 246-81 99-2 194-1 211 3 18 3 47 21 65 40 22 23 43 35 61 35 15 0 56 7 92 15 36 9 77 13 91 9 59-15 175 40 175 82 0 7 10 18 23 27 13 8 32 34 42 58 11 24 26 49 35 56 13 10 36 51 74 133 14 30 64 40 78 16 15-27 90-59 140-60l48-1v-60c0-34 7-71 15-85s19-35 24-47c6-13 17-23 26-23 8 0 15-4 15-9s13-12 30-16c16-3 41-16 56-28 37-29 126-35 179-12 22 10 77 21 122 25 53 4 87 12 97 22 9 9 19 18 24 20 5 1 21 29 35 60 22 46 34 59 62 69 19 7 35 17 35 21s6 8 13 8c8 0 22 9 32 20 13 14 31 20 60 20 49 0 99 15 137 42 25 17 45 64 62 140 3 15 12 33 19 40 23 26 57 78 67 103 5 14 15 25 22 26 28 1 55 55 66 128 6 41 9 78 6 82-2 4-7 70-9 146-5 124-8 141-29 174-31 46-83 71-152 71-30 0-54 5-54 9 0 5-19 28-41 51-43 44-62 90-75 183-5 37-17 62-45 96-33 40-47 48-98 60-57 12-59 14-65 48-3 20-6 53-6 73 0 45-28 103-55 116-19 8-19 9 3 28 12 10 22 24 22 31s4 13 9 13c17 0 35 74 34 143-1 65 0 69 25 79 32 12 88 26 157 37 28 5 83 21 124 35 49 17 96 26 135 26 77 0 153 34 187 81 12 19 26 36 29 39 11 8 33 127 26 138-3 6-1 12 5 14 7 2 14 30 17 61 3 41 9 57 19 57 8 0 17 9 20 20 3 12 17 23 32 26 48 9 91 37 112 71 19 30 20 46 17 192l-3 159-32 31c-18 17-37 31-41 31-5 0-16 17-26 38-14 28-18 60-17 136 1 111-11 141-71 186-30 22-41 24-160 24-123 1-128 2-128 22 0 24-41 69-84 91-53 28-87 33-133 21-37-9-49-8-78 8-31 16-55 50-55 76 0 6-12 23-27 37-26 24-28 32-28 106-1 82-29 227-46 233-16 6-10 17 21 35 42 25 70 120 70 238 0 86-22 211-43 236-14 19-1 43 25 43 36 0 95 48 112 91 9 21 29 53 45 69 21 23 31 47 41 103 16 86 15 351-1 421-19 80-92 136-177 136-12 0-25 8-29 18-8 23-54 72-68 72-7 0-32 16-57 36l-46 35 5 57c8 92-33 161-117 198-19 8-38 20-42 27-7 11-34 12-273 5-27-1-77 1-110 3l-60 4-22 46c-21 45-22 50-8 103 8 32 15 70 15 86 0 30-20 115-39 163-6 16-11 38-11 50 0 34-49 95-94 117-33 16-62 20-133 20-70 0-92 3-96 14-3 8-29 23-57 33-40 14-52 24-56 43-2 14-9 43-15 65-5 22-16 75-24 117-7 42-20 101-29 132l-16 55 40 53c22 29 40 63 40 74 0 12 9 33 20 47s25 48 32 76c6 28 15 51 20 51 4 0 8 5 8 11 0 13 85 99 98 99 5 0 17 11 25 24 9 13 29 38 45 56 31 34 50 116 36 154-5 12 5 29 34 59 31 32 44 57 56 103 23 90 20 134-19 273-19 69-35 133-35 143 0 9-11 52-25 93-13 42-28 113-31 158-14 171-43 227-131 253-45 13-63 14-106 4-29-7-59-19-68-26-8-8-36-17-62-20-37-5-50-3-73 15-15 11-33 21-40 21-8 0-20 16-29 35-16 39-66 68-119 68-18 0-39 10-55 27-33 34-132 57-174 41-43-17-76-13-110 12-29 20-43 22-152 21-91-1-130-5-160-18-61-27-95-36-95-25 0 6 7 24 16 42 32 60 2 339-43 407-15 23-23 50-23 80 0 51-30 157-54 191-9 13-16 32-16 41 0 17-18 57-31 68-3 3-8 13-12 23-3 9-13 17-22 17-11 0-15 11-15 45 0 25-9 63-19 83-11 21-24 63-29 93-10 52-10 55 19 84 16 17 29 36 29 43s6 12 14 12c12 0 35 40 79 137 5 12 19 24 31 27 39 10 70 64 74 131 3 38 11 67 21 80 10 11 24 36 31 55s25 51 40 70c39 52 57 161 41 248-16 86-48 187-68 218-23 36-72 61-133 69-30 4-62 11-71 16-16 8-28 88-34 219-5 112-63 170-181 181-46 5-80 13-90 23-8 9-35 27-59 42-38 22-54 25-120 23-89-2-95 2-95 72 0 44-24 144-40 164-4 6-15 33-24 61-24 72-69 103-165 111-41 3-76 12-82 19-6 8-17 14-23 14s-24 14-40 31-40 35-53 40c-44 16-126 10-168-12-36-20-43-20-95-8-30 8-61 12-68 11-34-8-42 18-42 132 0 106-2 114-32 171l-32 60-3 180c-3 131-8 187-18 209-8 16-15 34-15 40-1 6-9 29-20 51-26 55-25 64 13 80 49 21 76 56 89 118 14 64 0 160-29 204-9 13-19 41-23 61-5 20-15 63-24 95-23 85-21 113 9 121 13 3 44 25 69 49 24 23 63 59 87 80s54 47 66 59c47 46 54 204 13 293-10 22-22 80-28 129-5 48-14 91-19 95-16 11-41 74-51 131-12 62 6 176 29 191 22 13 17 166-8 209-11 19-23 50-26 68-4 18-12 39-19 48-40 49-67 74-78 74-8 0-22 8-33 18-13 12-36 17-78 17-44 0-65 6-88 23-17 12-34 22-40 22-5 0-11 7-15 15-13 35-161 71-267 66l-36-1-7 86c-11 151-49 187-196 189-52 1-103 5-113 9-17 8-114-6-198-29-27-8-52-9-60-4-8 4-37 11-66 15-29 3-53 9-53 13 0 3-15 12-32 19-18 7-48 20-66 28s-55 14-82 14c-37 0-55 6-78 25-17 14-34 25-40 25-5 0-30 16-55 35s-50 35-54 35c-5 0-14 19-21 43-19 67-48 82-167 84-55 2-109-1-120-6zm100-289c31-26 48-37 141-92 23-14 55-34 70-44 16-11 46-30 66-44l38-25 49 22c27 11 59 21 70 21 24 0 71-20 71-30 0-4 11-19 24-33 20-22 31-26 56-21 20 4 45 0 70-11 37-17 41-17 107 3 172 51 222 53 288 11 63-40 72-52 85-116 16-72 73-115 180-134 65-11 210-64 283-103 34-19 78-37 98-40 21-4 49-16 64-28 25-19 27-25 20-67-16-113-23-148-35-179-10-28-9-44 10-113 24-89 21-108-21-157-16-18-29-41-29-50 0-24 46-66 90-85 34-14 37-18 62-112 24-89 25-102 13-131-7-18-31-44-52-58s-56-39-78-55c-28-21-64-35-120-46-44-9-87-23-95-31s-15-32-15-55c0-46 14-59 63-59 40 0 56-32 47-94-7-48 6-117 40-203 42-104 31-140-50-162-52-14-59-19-80-61-10-19-31-51-46-70-45-54-39-75 18-70 39 3 64-20 95-87 42-90 47-144 18-198l-23-42 32-103c36-121 38-144 11-188-11-18-20-38-20-45 0-8 20-32 45-54 48-43 55-69 30-113-8-14-14-43-15-65 0-101 43-159 128-170 26-4 56-11 67-16 18-8 57-18 147-36 15-3 48 2 74 11 68 23 123 21 164-8 50-34 125-66 154-66 43 0 56-11 86-71 35-68 37-98 10-158-31-67-27-94 22-135 41-35 43-36 107-30 103 10 167-7 273-71 150-90 178-125 193-240 8-59 38-131 67-162 17-18 32-23 73-23 67 0 98-24 114-84 16-65 14-81-16-116-59-70-95-144-109-222-14-81-25-105-102-228-40-63-56-79-99-100-79-39-85-47-80-99 4-48 25-137 58-253 19-67 19-68-1-107-28-56-25-84 11-120 17-17 34-31 39-31 18 0 72-54 91-91 10-21 30-84 44-139 13-56 36-127 51-158 32-68 34-123 5-180-13-26-21-61-21-94s-10-76-25-113c-20-48-25-77-25-146 0-76 3-88 23-106 36-33 63-43 116-43 45 0 56 5 101 43 99 84 123 101 168 124 48 25 109 29 171 14 75-19 167-34 197-33 19 1 49-10 84-33 30-19 57-35 61-35 3 0 34-34 69-75 34-42 73-83 86-92 25-16 49-13 209 29 73 18 111 20 122 6 20-23 145-530 138-558-4-14-20-39-36-56-21-22-32-46-38-85-19-113-110-248-222-331-36-27-49-58-79-197-6-24-19-57-29-75-31-49-61-147-59-191 2-29-5-50-21-72-22-29-23-35-11-63 7-17 30-53 52-78 21-26 43-65 49-86 9-34 8-43-11-68-17-24-20-37-15-66 19-99 51-128 157-138 50-5 76-14 125-46 62-39 64-40 127-33 62 6 65 6 82-21 23-35 30-133 12-157-8-10-36-31-63-45-58-32-90-85-80-132 9-43 75-80 143-80 48 0 52-2 73-37 34-58 60-83 112-109 29-15 52-35 59-52 21-48 39-62 77-61 63 2 85 13 103 51 18 39 56 58 113 58 56 0 80-30 115-141 30-96 35-106 100-174 38-40 72-85 76-100 5-21 20-33 61-51 29-13 63-24 74-24s31-11 45-25c23-23 25-32 21-78-17-160-18-162-93-240-66-68-133-165-148-214-4-12 5-66 20-125 14-56 27-129 28-161 1-57 1-58-52-105-70-63-100-142-86-228 9-58 18-68 66-78 18-4 29-16 37-37 27-78 3-135-72-170-29-13-53-31-55-40s18-40 44-68c45-50 50-53 85-47 49 8 76-15 123-104 52-99 79-113 184-96 62 9 77 1 93-55 23-75 57-84 229-64 56 6 68 5 88-12 26-20 52-110 52-179 0-29 10-57 37-100 62-99 48-175-48-256-58-50-79-84-79-130 0-51-57-172-91-192-16-9-75-31-131-47-97-30-103-30-135-15-48 23-65 20-99-15-16-16-49-39-73-50-25-11-60-31-79-45-18-15-45-29-60-33-14-4-35-19-46-34-20-27-20-29-3-76 30-86 23-112-54-196-15-17-35-57-44-91-16-60-16-62 6-113 12-28 29-57 38-64 45-33 92-109 100-157 10-64 49-107 109-122 53-13 65-31 86-130 10-44 27-91 42-110 13-18 32-46 41-62 40-65 65-86 121-102 75-22 122-70 122-123 0-21-11-71-25-112-26-77-53-108-137-164-33-22-38-30-38-63 0-49-15-68-69-87-25-8-59-26-77-40-17-13-54-33-82-43-62-24-142-88-142-113 0-21-31-44-72-54-22-6-39 0-76 24-96 62-130 131-102 207 16 42-3 55-61 42-41-9-54-8-115 16-38 14-89 36-113 48-23 12-64 25-90 29-25 4-61 13-79 20-30 12-37 11-78-10-32-17-53-38-70-70-48-87-79-139-96-158-9-10-23-34-31-53s-31-54-51-77c-41-47-117-77-225-88-36-3-94-16-128-27-58-19-72-20-155-10-50 6-100 18-112 26-11 9-39 29-61 46-22 16-59 38-81 49-23 11-45 24-48 29-3 6-37 27-74 48-43 24-120 87-215 176-81 76-151 138-156 138-15 0-40 65-65 166-24 94-25 97-82 148-58 52-96 80-216 160-122 82-162 99-223 94-55-5-131-43-215-109-51-40-80-44-147-21-82 29-157 63-166 76-4 6-6 40-5 76 3 59 1 65-17 65-13 0-26-12-37-35-24-48-65-89-95-96-24-6-44 1-113 41-32 19-97 11-170-21-97-44-116-81-58-112 18-9 50-33 70-53 45-44 50-85 16-135-27-39-47-49-126-64-52-9-70-7-155 15-54 14-108 25-121 25s-54 9-90 20c-53 17-69 27-81 50-9 16-29 45-45 64-17 18-37 51-46 72-9 22-31 55-50 74-43 45-63 130-45 189 6 21 11 52 11 69 0 41-48 231-66 259-15 24-77 48-100 39-18-7-15-42 18-170 27-111 23-121-60-146-75-23-88-21-151 25-19 14-44 25-57 25s-42 7-64 16c-49 20-70 13-70-21s14-59 66-120c38-45 50-52 112-68 39-10 76-25 83-33 7-9 13-36 13-61 1-59-18-73-71-53-21 7-62 17-90 22-29 4-79 13-110 18-32 6-94 14-138 19s-93 14-109 20c-16 7-42 9-57 6-22-5-33-1-49 17-11 13-42 47-69 76-28 29-53 62-56 72-8 26-28 33-165 55-19 3-58 10-86 16-41 9-65 8-122-5-64-14-76-15-101-2-26 14-61 68-61 96 0 7 13 24 28 38 42 40 102 131 102 156 0 12-6 29-12 38-16 19-121 78-139 78-8 0-39 24-70 53-48 45-57 60-68 109-10 49-10 61 4 87 30 58 91 69 122 22 30-48 92-111 108-111 23 0 29 48 15 115-25 118-29 104 57 192 43 44 85 93 93 109s29 46 47 67c39 44 41 57 10 83-84 74-132 87-223 59-74-22-87-19-153 37-90 76-88 86 43 195 28 23 36 79 14 101-24 24-92 10-172-35-16-9-70-22-120-29s-121-18-158-25c-97-17-138 0-239 104-101 103-114 142-82 242 6 17 7 40 2 53-10 27-52 29-118 6-25-8-97-19-161-23-64-5-126-13-137-19-12-7-23-26-27-45-3-19-17-43-29-55-24-23-162-72-202-72-69 0-89 130-35 226l31 53-16 84c-13 68-13 89-3 113 6 16 13 63 14 104s5 96 9 121c6 36 2 64-19 131-14 47-26 93-26 102 0 33-31 29-68-8-57-59-83-69-168-61-71 7-75 6-122-24-27-17-54-31-60-31-34 0-222-225-222-265 0-32-44-66-111-86-99-30-112-48-88-118 24-67-20-112-91-91-19 5-42 10-51 10-23 0-89-94-89-125 0-32 43-55 103-55 24 0 50-6 59-12 24-19 72-181 64-214-4-15-22-42-41-61-36-36-45-36-104 4-66 45-85 25-76-84 7-97-3-119-70-153-63-32-67-54-24-151 42-98 36-116-51-147-36-13-90-28-120-33-47-7-61-15-97-54-50-53-76-65-143-65s-113 39-134 114c-23 80-59 87-116 26-48-52-80-54-109-5-16 28-27 35-50 35-20 0-34-7-41-19-5-11-28-41-50-66s-40-51-40-57c0-23-34-48-63-48-17 0-45 5-62 11-26 10-37 8-73-10-22-11-50-21-61-21-30 0-78 62-86 112-4 24-14 59-22 78-13 32-12 41 8 105 12 38 25 75 29 80 14 19 22 259 10 304-21 77-34 84-174 80-107-3-128-1-180 19-33 13-72 34-88 47-17 14-42 25-59 25s-44 7-61 16c-35 18-99 14-125-8-9-7-22-28-30-46-16-39-44-42-93-8-53 35-68 37-158 17-71-15-89-24-123-57-41-39-89-120-89-148 0-9 7-31 16-50 33-67 9-93-107-116-48-9-63-8-99 6-40 16-47 16-116 0-64-15-81-16-124-5-40 10-62 10-112 0-57-11-70-10-128 8-36 11-88 25-116 31-55 12-237 116-291 168-38 35-41 62-13 102 25 35 10 51-35 39-22-6-39-24-64-65l-34-57 6-128c5-108 4-131-9-144-24-23-59-28-91-12-29 15-91 79-126 131-24 35-52 33-90-9-37-40-140-95-178-95-35 0-50 20-57 75-3 31 0 52 12 69 25 40 20 79-20 136-36 52-36 54-29 122 8 87 27 149 54 184s27 60-5 128c-51 112-27 217 63 276 58 38 93 85 93 125 0 49 38 110 131 214 49 54 96 115 104 135 19 46 19 147 0 193-20 47-10 176 19 252 18 46 29 59 66 78 62 33 72 45 72 87 0 57-20 95-63 117-21 10-43 27-48 37-25 46-261 189-342 206-33 7-57 61-90 199-13 54-31 106-41 117s-37 24-61 31c-72 19-83 26-104 66-11 21-28 52-37 70-16 30-16 33 10 96l27 65-17 75c-15 67-22 80-56 107-53 42-82 39-132-11-41-41-41-41-100-35-32 3-73 12-91 20-48 20-144 97-194 155-40 46-46 49-100 54-97 9-156 23-170 43-21 27-14 90 30 288 10 41 25 79 39 95 13 14 36 45 52 67l27 42-13 103c-15 117-13 261 3 291 6 11 19 59 29 107 14 71 16 108 9 211-4 69-14 148-23 175-10 35-14 87-13 170 2 174-16 215-97 215-47 0-82 15-114 48-15 15-49 45-76 67-65 52-88 90-80 135 8 48 28 67 77 75 88 15 110 47 114 165 2 47 3 93 4 103 0 9-16 44-35 76-50 82-50 129 3 186 37 41 81 135 81 176 0 11-5 40-11 65-11 41-9 51 12 97 13 29 39 71 56 95 18 24 36 54 39 66 9 39-42 134-116 216-57 64-71 86-84 137-9 34-16 82-16 107 0 44-28 117-49 130-17 11-52 134-49 173 3 34 8 40 48 60 25 12 71 26 102 33 52 10 63 9 105-10 59-26 83-21 116 28 39 55 79 76 135 68 38-5 58-1 100 19 62 29 120 32 164 9 35-18 98-13 136 12 23 15 23 20 17 86-7 68-6 71 23 101 58 61 48 151-19 176-72 26-83 36-96 81-17 59-1 86 59 95 24 3 63 10 88 15s66 12 92 15c42 5 52 12 99 66 46 53 54 68 61 120 4 33 15 73 23 90 10 19 14 41 9 64-3 18-1 50 6 70s14 70 15 111c3 61 0 77-16 98-23 29-49 88-49 111 0 8 16 33 36 55 27 30 52 45 106 62 56 18 76 30 97 58 14 19 33 40 42 47s22 26 29 43c11 27 10 36-12 77-14 27-46 65-75 88-28 22-58 52-67 67-21 34-20 83 2 116 10 15 33 62 51 105 27 63 32 84 26 115-4 20-7 48-7 61 0 31 84 116 139 143 91 43 107 136 45 260-29 58-63 177-92 323-14 70-53 187-86 261-12 29-26 69-30 90-4 22-17 69-30 105-13 37-26 104-30 150-3 46-13 108-21 137-19 68-10 124 28 167 16 18 36 48 44 66 26 61 59 89 129 115 37 13 78 24 92 24 43 0 174-130 215-214 24-50 39-53 140-27 76 19 98 21 133 12 22-5 62-13 87-16 68-9 135-55 159-110 19-43 21-45 62-45 54 0 77 16 117 78 37 58 38 69 9 150-25 71-19 95 26 100 19 2 33-4 49-24 48-58 67-74 89-75 40 0 152-62 174-95 11-17 31-77 43-133 30-132 25-126 201-240 60-40 68-48 102-124 31-69 38-93 38-150 0-87 17-120 78-151 52-26 132-113 155-167 9-23 35-48 78-77 59-41 67-43 112-37 26 3 71 14 100 25 28 10 88 24 132 31 73 12 84 16 126 56 25 24 51 43 58 43 6 0 32 19 57 42 37 34 55 43 101 49 82 11 90 23 64 98-26 77-26 87 3 152 13 30 27 73 31 97 4 28 15 48 28 56 38 24 133 49 161 42 38-9 92-61 109-105 18-44 59-81 91-81 31 0 122 70 137 105 7 17 25 44 40 62 32 37 44 94 34 168l-6 52 50 36c54 39 71 75 71 156 0 47 39 140 90 216 85 126 88 133 79 173-22 90-22 90 10 146 32 58 38 99 22 168-14 59 18 113 84 143 62 27 83 54 124 160 23 60 38 85 60 98 44 26 91 84 91 114 0 14-5 44-12 66-11 36-10 41 10 57 12 10 53 24 91 31l69 12 79-50c127-80 230-133 261-133 16 0 49 7 72 15 57 20 89 19 125-5 46-30 68-25 110 25 20 25 55 55 78 66 35 19 51 20 123 14 81-7 85-6 138 25 31 17 65 44 77 61 22 32 67 59 97 59 10 0 37-20 59-45 49-55 77-58 158-15 68 36 92 37 147 9 43-22 46-22 168 5 71 16 78 20 128 74 29 31 62 75 73 97 69 129 101 149 190 120 43-15 58-15 91-6 41 13 88 1 176-44 28-15 40-15 75-5 78 22 98 23 138 5 34-16 45-16 80-6 23 7 59 30 82 51 59 57 105 61 162 12z" fill="#ffe8a2"/><path d="M8835 15991c-11-5-29-18-40-28s-47-25-80-32-69-21-80-31-45-21-75-24c-74-9-77-9-135 4-27 6-97 13-155 16-58 2-130 6-160 10-97 11-231-43-266-106-22-40-87-107-111-114-12-4-32-20-43-37-17-24-25-27-40-19-27 14-89 12-146-5-27-8-50-15-51-15-2 0-3 7-3 15s-4 15-9 15-17 8-26 17c-28 27-113 29-160 4-32-17-57-21-132-21-50 0-103-4-116-9-30-12-97-79-97-98 0-9-17-13-62-13-48 0-77-7-123-28-35-17-88-32-125-36-36-4-76-15-90-23-14-9-42-20-64-24-40-7-41-6-190 77-16 9-43 29-60 44-18 18-53 34-92 44-60 15-65 15-146-8-46-13-110-29-143-36-107-22-145-69-145-177 0-40-4-73-8-73-5 0-20-12-34-27-14-16-46-50-71-76-39-41-47-56-53-103-5-47-10-57-32-65-14-5-41-25-61-44-19-19-40-35-46-36-5 0-21-14-35-31-22-28-24-40-23-117 0-47 6-98 12-114 9-24 7-33-21-72-29-41-31-49-30-126 1-68-2-84-18-98-24-21-60-86-60-111 0-10-7-26-16-35-10-9-21-33-25-53-27-122-34-141-69-168-54-42-80-101-80-182 0-38-3-72-7-75-3-4-15 1-25 10-44 40-177 64-243 44-133-40-208-61-222-61-28 0-93-81-109-136-8-28-12-59-8-68s0-24-9-34c-27-31-47-93-47-149 0-66-23-92-99-112-46-12-103-52-113-80-3-11-118-32-118-22 0 3-23 17-50 29-28 13-56 32-63 43-6 10-17 19-22 19-6 0-19 18-29 40-18 41-68 90-92 90-9 0-14 12-14 36 0 20-9 53-19 73-31 58-34 72-35 146-1 100-24 141-101 182-55 30-111 57-176 85-22 10-27 20-36 82-10 66-47 167-65 174-4 2-8 9-8 16 0 20-57 56-103 65-23 4-60 20-81 34-21 15-42 27-46 27s-13 11-20 25c-8 14-29 35-48 47-31 19-43 20-146 15-144-9-199-27-237-80-16-22-29-51-29-64 0-22-3-23-37-17-21 4-50 13-64 20-50 25-106 28-176 9l-67-18-14 21c-8 12-21 22-29 22-7 0-17 8-20 18-4 9-13 23-20 30s-13 23-13 35c0 37-48 97-93 116-79 33-91 33-205-4-60-19-127-35-149-35-45 0-103-17-103-31 0-5-4-9-10-9-11 0-110-98-110-110 0-4-18-30-39-58-46-57-71-124-71-187s30-235 47-269c8-16 19-74 24-130 8-94 34-196 50-196 4 0 13-33 19-72 7-40 19-83 26-95 18-29 59-162 73-238 30-161 40-203 55-232 22-43 21-44-21-73-20-13-42-40-50-60-8-19-26-50-40-68-34-45-56-125-57-204 0-55-3-68-16-68-9 0-31-16-50-35-35-36-35-36-35-133 0-73 6-113 22-162 12-36 24-79 28-97 3-17 13-37 21-44 23-19 16-38-18-44-39-7-114-75-144-131-29-52-46-153-33-196 5-18 9-58 9-89 0-40 5-63 19-81 11-13 20-30 22-38 5-25-12-113-27-142-8-15-14-36-14-47s-14-40-30-65c-30-43-32-45-98-52-203-21-302-98-302-234 0-41 6-73 20-100 11-22 20-56 20-77 1-21 7-56 15-78 16-44 9-55-33-55-25 0-63-17-74-33-3-6-50-14-105-18-54-5-107-10-118-13-63-14-81-20-95-32-8-7-43-17-77-23-34-5-76-17-93-26-18-9-58-19-89-21-79-7-155-40-186-82-17-23-20-43-20-143 0-97 3-118 17-133 10-10 18-21 18-26s7-10 17-12c11-2 23-29 40-88 47-171 63-242 63-287 0-73 20-121 72-175 51-53 59-73 30-80-21-6-52-92-52-143 0-18 9-61 20-95 22-69 24-61-34-134-66-84-71-303-9-396 27-41 22-46-58-55-62-7-102-35-120-83-12-30-12-414 0-444 13-35 61-78 87-78 13 0 24-4 24-9 0-12 56-31 90-31 15 0 38-8 51-18s50-27 82-37l59-20-8-45c-15-81-7-171 28-338 10-46 9-57-5-82-10-16-17-49-17-78 0-28-5-52-10-54-6-2-15-31-20-65-11-63-1-162 20-218 12-30 4-69-16-86-8-6-14-22-14-35s-8-25-19-29c-10-3-22-13-25-23-4-9-13-28-21-42-7-14-18-62-24-107-6-46-20-101-31-123-27-52-34-119-22-193 6-38 6-71-2-98-8-33-7-50 9-97 27-78 63-97 190-105 52-3 102-10 111-15 10-5 24-29 33-53 13-34 25-48 56-63 22-11 55-20 75-21 36-1 48-5 115-36 22-9 58-19 80-20 22-2 54-9 72-16s48-13 66-13c31 0 35-4 41-31 3-17 6-49 6-70 0-36 16-88 31-99 4-3 8-37 11-76 2-50 9-76 21-88 9-10 17-21 17-24 0-14 81-42 120-42 24 0 42-5 44-12 34-118 43-148 58-178 10-19 18-45 18-58 0-27 38-78 79-104 18-12 46-18 91-18 49 0 71-5 90-20 14-11 30-20 35-20 6 0 21-9 34-19l24-18-23-37c-16-26-24-57-26-104-3-37-9-115-14-174-8-94-6-116 11-175 12-42 15-69 9-71s-23-23-40-47c-16-23-46-50-67-60-46-22-70-50-79-92-3-18-12-33-20-33-17 0-43-60-51-117-5-34-13-47-48-72-28-20-49-46-63-79-12-28-28-52-36-55s-22-30-32-60c-15-50-16-60-1-131 12-63 13-84 3-119-19-64-20-359-2-437 8-35 19-67 24-72s7-41 5-81c-9-138 41-252 125-289 83-36 256-19 285 29 13 21 23 16 93-37 36-27 77-53 91-56 14-4 76-4 137 0 99 6 115 9 150 34 29 21 74 84 92 130 1 1 21-9 45-23 26-15 60-25 84-25 39 0 85-10 209-44 50-14 68-15 113-5 42 10 64 9 109-1 45-11 64-11 103-1s61 10 109 0c55-12 68-10 173 15 63 16 132 31 154 33 30 4 49 15 74 42 46 49 53 72 55 173 2 116 10 124 90 98 91-31 213-23 257 16 15 13 22 11 64-17 39-27 61-33 129-40 44-4 92-11 105-17 17-6 39-5 66 3l41 13-4-37c-3-20-9-39-13-42-5-3-14-32-20-65-6-32-14-78-20-102-13-62-11-103 10-190 10-42 25-103 32-135 11-50 19-63 60-98 26-21 50-39 53-39 4 0 15-8 26-18 29-26 131-47 178-35 23 6 48 6 63 1 13-5 44-6 69-2s54 6 64 5c11-2 48 0 82 4 66 7 106 33 125 82 5 13 22 26 44 32 33 9 41 6 93-28 77-51 138-67 196-52 25 6 76 11 114 11 83 0 148 29 203 92l35 40 95 2c116 2 163 22 193 81 18 34 21 58 21 162 0 112 2 123 23 145 12 13 22 32 22 41 0 37 22 65 56 70 38 6 94 44 94 64 0 7 4 13 9 13s16 18 25 40 20 40 25 40 19 30 31 66c26 78 23 125-15 207-28 63-34 151-11 164 13 8 46 90 46 116 0 7 24 21 53 32 42 17 58 30 84 70 45 69 76 114 89 128 5 7 13 20 17 30 3 9 13 17 21 17 13 0 56 44 81 82 6 9 29 19 53 22 39 6 42 5 42-16 0-13-7-41-15-63-17-48-18-108-2-155 10-30 9-41-5-70-24-48-41-145-34-194 3-23 10-85 16-139 7-70 15-107 30-127 11-15 20-33 20-39s4-11 9-11 17-7 26-16c9-10 47-21 89-27 75-11 117-5 236 36 25 9 81 24 125 33 93 20 142 56 147 108 2 23 9 32 26 34 20 3 22-1 22-40 0-73 25-139 70-183 22-21 40-45 40-52s4-13 8-13c5 0 19-9 32-20s31-20 40-20 25-8 34-19c35-39 225-69 316-50 122 25 135 27 140 22 3-2 5-30 6-61 1-84 28-157 68-182 19-11 43-20 55-20 11 0 21-4 21-9s11-12 25-15c39-10 27-66-13-66-44 0-143-77-194-150-26-36-24-163 2-230 11-28 20-63 20-77 0-30 43-108 63-116 8-3 25-26 37-52s28-49 35-51c10-4 11-14 3-42-6-20-7-68-4-106 6-74 6-79 4-136-1-58 38-127 89-157 40-23 51-25 108-20 36 4 79 14 96 23 47 24 212 23 259-1 35-18 76-64 92-101 24-57 106-106 198-119 25-4 69-14 97-23 42-12 62-13 99-5 36 8 57 8 88-2 23-8 77-21 121-30s100-20 125-26c46-11 153-5 193 10 12 5 38 23 56 40 36 34 44 31 58-19 3-14 12-31 20-38 7-8 11-18 7-23-3-5 2-33 10-62 11-37 25-60 46-76 35-26 115-52 157-51 41 1 131-17 182-35 56-20 226-31 272-17 19 5 69 16 111 23 88 15 116 35 182 129 32 44 41 68 49 127 6 40 15 73 19 73s17-8 28-17c29-25 100-44 139-36 24 4 37 2 45-9 29-39 187-64 236-38 10 5 48 14 84 19 73 11 109 33 135 83 9 18 24 34 33 36s54-23 99-54c46-31 102-66 126-76s43-25 43-32 11-25 25-40c38-41 57-92 65-177 10-108 32-148 101-181 46-22 57-32 62-57 13-66 45-89 157-115 14-3 57-35 95-71 39-36 73-65 77-65s28-16 54-35c25-19 52-35 59-35 8 0 25-11 39-25s31-25 39-25 19-17 26-37c21-71 42-78 246-81 99-2 194-1 211 3 18 3 47 21 65 40 22 23 43 35 61 35 15 0 56 7 92 15 36 9 77 13 91 9 59-15 175 40 175 82 0 7 10 18 23 27 13 8 32 34 42 58 11 24 26 49 35 56 13 10 36 51 74 133 14 30 64 40 78 16 15-27 90-59 140-60l48-1v-60c0-34 7-71 15-85s19-35 24-47c6-13 17-23 26-23 8 0 15-4 15-9s13-12 30-16c16-3 41-16 56-28 37-29 126-35 179-12 22 10 77 21 122 25 53 4 87 12 97 22 9 9 19 18 24 20 5 1 21 29 35 60 22 46 34 59 62 69 19 7 35 17 35 21s6 8 13 8c8 0 22 9 32 20 13 14 31 20 60 20 49 0 99 15 137 42 25 17 45 64 62 140 3 15 12 33 19 40 23 26 57 78 67 103 5 14 15 25 22 26 28 1 55 55 66 128 6 41 9 78 6 82-2 4-7 70-9 146-5 124-8 141-29 174-31 46-83 71-152 71-30 0-54 5-54 9 0 5-19 28-41 51-43 44-62 90-75 183-5 37-17 62-45 96-33 40-47 48-98 60-57 12-59 14-65 48-3 20-6 53-6 73 0 45-28 103-55 116-19 8-19 9 3 28 12 10 22 24 22 31s4 13 9 13c17 0 35 74 34 143-1 65 0 69 25 79 32 12 88 26 157 37 28 5 83 21 124 35 49 17 96 26 135 26 77 0 153 34 187 81 12 19 26 36 29 39 11 8 33 127 26 138-3 6-1 12 5 14 7 2 14 30 17 61 3 41 9 57 19 57 8 0 17 9 20 20 3 12 17 23 32 26 48 9 91 37 112 71 19 30 20 46 17 192l-3 159-32 31c-18 17-37 31-41 31-5 0-16 17-26 38-14 28-18 60-17 136 1 111-11 141-71 186-30 22-41 24-160 24-123 1-128 2-128 22 0 24-41 69-84 91-53 28-87 33-133 21-37-9-49-8-78 8-31 16-55 50-55 76 0 6-12 23-27 37-26 24-28 32-28 106-1 82-29 227-46 233-16 6-10 17 21 35 42 25 70 120 70 238 0 86-22 211-43 236-14 19-1 43 25 43 36 0 95 48 112 91 9 21 29 53 45 69 21 23 31 47 41 103 16 86 15 351-1 421-19 80-92 136-177 136-12 0-25 8-29 18-8 23-54 72-68 72-7 0-32 16-57 36l-46 35 5 57c8 92-33 161-117 198-19 8-38 20-42 27-7 11-34 12-273 5-27-1-77 1-110 3l-60 4-22 46c-21 45-22 50-8 103 8 32 15 70 15 86 0 30-20 115-39 163-6 16-11 38-11 50 0 34-49 95-94 117-33 16-62 20-133 20-70 0-92 3-96 14-3 8-29 23-57 33-40 14-52 24-56 43-2 14-9 43-15 65-5 22-16 75-24 117-7 42-20 101-29 132l-16 55 40 53c22 29 40 63 40 74 0 12 9 33 20 47s25 48 32 76c6 28 15 51 20 51 4 0 8 5 8 11 0 13 85 99 98 99 5 0 17 11 25 24 9 13 29 38 45 56 31 34 50 116 36 154-5 12 5 29 34 59 31 32 44 57 56 103 23 90 20 134-19 273-19 69-35 133-35 143 0 9-11 52-25 93-13 42-28 113-31 158-14 171-43 227-131 253-45 13-63 14-106 4-29-7-59-19-68-26-8-8-36-17-62-20-37-5-50-3-73 15-15 11-33 21-40 21-8 0-20 16-29 35-16 39-66 68-119 68-18 0-39 10-55 27-33 34-132 57-174 41-43-17-76-13-110 12-29 20-43 22-152 21-91-1-130-5-160-18-61-27-95-36-95-25 0 6 7 24 16 42 32 60 2 339-43 407-15 23-23 50-23 80 0 51-30 157-54 191-9 13-16 32-16 41 0 17-18 57-31 68-3 3-8 13-12 23-3 9-13 17-22 17-11 0-15 11-15 45 0 25-9 63-19 83-11 21-24 63-29 93-10 52-10 55 19 84 16 17 29 36 29 43s6 12 14 12c12 0 35 40 79 137 5 12 19 24 31 27 39 10 70 64 74 131 3 38 11 67 21 80 10 11 24 36 31 55s25 51 40 70c39 52 57 161 41 248-16 86-48 187-68 218-23 36-72 61-133 69-30 4-62 11-71 16-16 8-28 88-34 219-5 112-63 170-181 181-46 5-80 13-90 23-8 9-35 27-59 42-38 22-54 25-120 23-89-2-95 2-95 72 0 44-24 144-40 164-4 6-15 33-24 61-24 72-69 103-165 111-41 3-76 12-82 19-6 8-17 14-23 14s-24 14-40 31-40 35-53 40c-44 16-126 10-168-12-36-20-43-20-95-8-30 8-61 12-68 11-34-8-42 18-42 132 0 106-2 114-32 171l-32 60-3 180c-3 131-8 187-18 209-8 16-15 34-15 40-1 6-9 29-20 51-26 55-25 64 13 80 49 21 76 56 89 118 14 64 0 160-29 204-9 13-19 41-23 61-5 20-15 63-24 95-23 85-21 113 9 121 13 3 44 25 69 49 24 23 63 59 87 80s54 47 66 59c47 46 54 204 13 293-10 22-22 80-28 129-5 48-14 91-19 95-16 11-41 74-51 131-12 62 6 176 29 191 22 13 17 166-8 209-11 19-23 50-26 68-4 18-12 39-19 48-40 49-67 74-78 74-8 0-22 8-33 18-13 12-36 17-78 17-44 0-65 6-88 23-17 12-34 22-40 22-5 0-11 7-15 15-13 35-161 71-267 66l-36-1-7 86c-11 151-49 187-196 189-52 1-103 5-113 9-17 8-114-6-198-29-27-8-52-9-60-4-8 4-37 11-66 15-29 3-53 9-53 13 0 3-15 12-32 19-18 7-48 20-66 28s-55 14-82 14c-37 0-55 6-78 25-17 14-34 25-40 25-5 0-30 16-55 35s-50 35-54 35c-5 0-14 19-21 43-19 67-48 82-167 84-55 2-109-1-120-6zm130-260c17-15 44-33 62-40 17-7 34-19 36-26 3-7 21-15 40-19 18-3 44-17 57-31s28-25 34-25 29-9 50-21c34-18 43-19 86-8 59 15 87 8 141-37 30-25 49-34 64-30 12 3 38-3 59-15 36-19 41-19 84-5 61 20 186 46 221 46 41 0 135-44 159-75 11-14 23-45 27-68s11-50 17-59c15-30 109-78 151-78 21 0 52-7 69-16s44-14 60-12c23 4 49-7 115-49 62-38 95-53 121-53 20 0 54-11 78-25 54-32 76-87 54-138-7-18-15-52-17-77s-11-59-20-76c-15-29-15-37 8-123 23-89 23-92 6-140-25-71-23-79 27-101 42-18 45-21 51-67 3-26 15-75 26-109 10-33 19-69 19-79 0-31-41-85-97-128-90-68-102-75-172-87-84-16-101-25-101-54 0-24 17-36 50-36 32 0 43-29 51-136 6-69 16-121 29-151 11-25 27-71 35-102 14-52 13-58-4-81-10-14-42-33-75-45-53-18-60-24-78-68l-21-48 36-37c38-39 81-138 98-225 7-41 5-57-12-97l-21-48 31-107c29-104 30-107 14-156l-16-50 36-30c50-41 58-87 26-148-52-99-12-191 84-191 23-1 53-7 67-15s38-14 53-15c15 0 44-7 64-15 34-14 43-14 125 7 88 23 89 23 121 4 99-59 144-79 190-85l52-6 38-75c34-65 38-81 34-125-3-27-13-64-23-81-15-26-16-36-7-57 15-33 56-44 196-53 105-7 109-8 184-53 43-25 105-73 139-106 50-48 63-68 68-100 16-102 29-146 55-187 29-45 29-46 94-50 81-5 99-20 121-97 25-88 21-115-19-160-19-21-35-42-35-46 0-5-14-38-32-73-17-36-33-87-36-115-4-37-17-68-56-128-28-43-64-99-80-125-16-25-40-50-55-56-87-34-91-37-91-67 0-16 5-42 11-58 6-15 15-53 20-83 6-30 20-86 32-123 18-59 20-72 8-100-32-78-25-95 54-142 31-18 49-38 68-79 28-58 57-159 57-196 0-12 16-57 35-100 39-87 44-141 20-210-8-23-15-58-15-76 0-35-31-157-48-190-5-11-10-51-10-90-2-88 12-105 94-112 55-5 56-4 98 39 57 59 125 109 178 130 54 22 147 24 213 3 28-8 89-18 137-21 81-5 91-9 140-44 67-48 72-53 136-132 29-36 61-67 71-70 9-2 46 4 82 13 35 10 91 25 124 34 71 19 119 21 133 3 6-7 16-42 21-77 6-36 26-121 46-189 19-69 35-135 35-146 0-12 9-48 20-80 33-96 27-136-31-203-16-18-29-42-29-54 0-22-41-142-64-186-19-37-150-162-170-162s-36-31-36-72c-1-18-7-44-15-58s-14-43-15-64c0-25-8-50-23-70-51-67-70-123-62-181 5-47 4-56-14-72-31-26-26-58 18-106 62-67 89-177 56-221-8-11-15-31-15-44 0-55 32-76 132-87 43-5 72-16 118-46 61-40 62-40 135-33 70 6 74 6 89-18 25-38 48-128 42-161-9-42-43-85-84-105-112-54-81-152 48-152 47 0 52-3 68-31 31-56 60-85 120-117 48-26 62-39 75-72 11-28 21-40 36-40 35 0 65 20 81 53 12 25 25 34 65 44 139 35 183 8 220-135 20-82 29-99 71-145 27-29 54-56 61-60s22-26 33-47c24-46 82-81 150-89 42-6 46-9 58-46 8-24 11-62 8-95-16-160-17-164-51-200-18-19-38-45-44-57s-24-29-39-38c-31-18-100-124-108-164-3-14 6-66 21-115 31-105 41-191 27-227-6-15-30-40-54-56-37-25-46-38-66-98-29-91-24-131 22-150 48-20 58-38 64-113 6-87-13-128-68-149-50-20-55-35-24-73 22-26 32-30 76-30 57 0 73-14 130-110 18-30 49-65 68-78 31-21 41-22 111-16l77 6 16-30c9-17 16-37 16-45 0-25 39-65 70-72 19-4 50 1 88 15 55 20 64 21 108 8 61-17 75-42 103-185 13-64 32-124 51-160 27-49 30-65 25-103-9-59-24-83-101-156-58-55-64-64-64-101 0-23-9-65-19-95-11-29-22-65-25-80-8-37-41-56-139-83-45-13-103-29-129-36-42-11-52-11-84 5l-37 17-31-29c-17-16-48-35-68-41-20-7-54-24-75-38s-56-36-78-47c-46-24-54-50-31-95 30-56 21-103-30-165-57-71-89-156-74-202 6-17 25-45 43-62 48-45 84-111 92-166 9-63 46-101 107-109 57-8 72-29 98-142 18-75 29-101 56-132 19-21 34-43 34-49 0-31 44-64 111-84 63-19 72-25 100-68 27-43 30-53 26-112-6-101-82-228-169-282-24-15-28-24-28-61 0-45-13-67-39-67-37 0-94-23-125-51-19-16-52-36-75-44-57-20-119-72-126-106-8-35-19-43-77-58-65-15-67-15-127 23-74 48-103 95-110 175l-6 65-55 1c-72 2-133 19-197 56-31 17-67 29-88 29-19 0-51 9-70 19-20 10-45 17-56 14-23-6-69-58-69-78 0-8-13-29-29-47-15-18-32-44-36-58s-15-34-25-45-26-36-35-55c-10-19-34-54-53-77-42-50-111-77-238-93-45-6-108-20-140-31-51-17-73-19-164-14l-105 7-87 59c-48 32-90 59-93 59-10 0-214 141-222 153-14 25-241 225-262 232-20 6-29 30-76 200-26 97-111 174-370 336-61 37-77 43-122 42-42 0-59-6-87-29-164-137-221-152-336-89-36 19-80 35-98 35-28 0-35 5-48 35-8 19-17 35-20 35-2 0-23-9-46-21-51-26-99-22-152 15-54 36-101 35-162-6-26-18-49-38-51-45-3-6 12-23 32-36 89-61 110-140 55-214-33-44-50-53-158-77-65-14-77-14-109-1-19 8-50 15-67 15-17 1-42 7-56 15s-38 14-55 15c-26 0-85 16-151 40-12 5-25 21-28 36-4 15-23 45-41 67-19 22-40 56-46 76s-27 52-45 71c-42 44-68 127-60 184 17 112 17 127-4 212-29 122-36 136-63 132-31-4-33-38-8-129 36-128 29-141-84-170-91-23-128-20-165 16-44 42-130 53-130 17 0-10 13-34 30-53 29-36 60-50 167-78 35-10 43-17 54-48 6-20 12-54 13-76 1-69-64-97-147-62-20 8-42 12-50 9s-31 2-52 10c-21 9-50 16-66 16s-46 7-67 15c-30 12-49 14-82 6-29-6-51-6-69 2-14 6-53 13-86 16-55 6-61 9-80 40-11 19-36 51-56 70-20 20-44 48-54 63-11 18-26 28-41 28-14 0-41 7-61 15-19 8-55 15-79 15s-54 5-68 11c-20 9-43 8-109-6-100-21-114-16-158 53-44 70-40 91 37 173 46 49 64 76 62 91-5 34-75 77-125 78-33 0-45 5-54 21-6 12-28 40-48 63-27 29-43 60-55 108l-18 68 25 43c41 69 115 93 147 47 53-78 97-89 86-21-21 131-28 110 67 205 51 51 90 99 97 120 6 19 22 42 36 50 35 23 30 41-20 76-51 34-91 38-156 15-23-8-60-15-82-15-36 0-46 6-98 60-32 33-61 71-64 85-9 35 15 76 74 126 36 30 50 49 48 63-5 33-41 30-127-8-43-20-89-36-102-36s-60-7-104-15c-145-27-170-28-219-12-63 21-89 41-192 147-46 47-64 127-45 199 15 61 9 75-33 67-17-3-93-14-168-25-139-18-168-29-168-61 0-9-10-32-22-50-20-29-36-38-118-63-133-40-146-42-174-23-32 20-49 76-50 156-1 54 4 73 27 112 30 51 32 77 16 161-10 47-9 63 5 97 13 34 14 49 6 82-9 33-8 49 6 88 15 43 16 56 5 107-15 66-35 103-56 103-8 0-36-12-62-26-42-22-58-25-128-22-73 2-84 0-130-27-61-36-179-151-190-185-4-14-18-38-30-55-13-16-26-39-29-51-11-36-51-64-121-83-72-20-89-34-80-66 20-68 18-93-9-120-23-22-34-26-79-25-74 2-75 2-87-19-11-22 2-70 23-83 7-4 31-8 54-8s44-4 47-8c3-5 12-44 21-87s24-96 32-117c19-47 12-67-43-127-41-46-64-50-112-21-57 35-62 30-62-60 0-102-15-134-76-160-53-23-56-42-19-122 33-72 33-120-1-147-15-12-34-21-43-21s-43-9-76-20-77-22-98-25c-29-5-43-14-63-44-32-49-62-63-149-68-62-4-74-2-105 19-36 24-65 71-75 121-7 36-34 35-71-4-36-39-89-63-111-50-9 5-24 24-32 42-9 19-23 34-30 34-17 0-71-71-102-132-16-33-29-45-58-53-47-13-84-13-114 1-19 9-31 7-55-5-41-21-68-20-109 5-38 24-57 56-67 114-4 22-15 61-24 87-15 44-15 49 1 83 9 20 17 48 17 63s7 38 16 50c12 17 16 53 17 160 2 172 0 178-85 184-35 3-89 1-121-5-48-9-63-8-85 5-15 9-49 19-77 24-27 4-63 17-80 29-38 29-121 65-148 65-24 0-57-27-57-47 0-7-9-22-20-33-29-29-77-25-130 11-41 27-49 29-100 23-77-9-103-22-144-74-61-77-71-103-57-147 18-55 11-102-19-124-14-10-61-26-104-34-66-14-87-14-123-4-27 7-61 9-91 4-59-9-127-9-171 0-19 5-55 2-85-5-46-11-61-10-127 8-41 11-95 23-122 27-29 5-70 22-105 44-31 21-89 56-128 79-46 27-80 55-97 81-15 23-31 41-36 41-34 0-48-97-29-206 18-99 2-126-81-145-23-5-43-3-61 6-29 15-111 100-129 133-15 29-45 28-65-2-8-13-53-43-100-66-93-45-125-46-152-5-24 36-29 116-10 153 22 43 20 76-8 109-44 54-49 70-41 161 7 82 18 122 52 189 16 30 15 35-10 121-15 49-27 99-27 112s14 52 30 87c24 49 38 67 63 78 56 23 89 67 93 124 5 59 31 106 99 177 157 163 193 249 145 344-16 32-19 54-16 124 3 56 9 92 20 108 9 12 16 37 16 55 0 36 19 52 83 73 45 14 62 44 53 93-7 40-19 52-59 62-15 4-36 20-47 35-17 24-123 99-242 173-15 9-45 17-66 17-25 0-45 7-55 18-23 25-63 143-77 225-15 81-38 114-88 122-20 3-47 8-59 11-25 5-103 141-103 179 0 13 7 52 16 86 9 37 14 82 11 108-4 39-12 52-49 83-23 21-46 38-50 38s-25-18-47-40c-44-45-68-49-163-29-80 17-116 39-216 134-74 68-97 84-115 80-12-3-44 1-72 10-27 8-62 15-77 15-35 0-55 29-69 101-9 48-8 64 15 141 14 48 28 111 32 140 5 38 15 61 39 87 66 73 68 85 60 281-6 152-5 181 9 208 9 17 16 45 16 62s7 47 16 68c13 30 14 58 9 147-4 61-15 135-23 165-11 38-16 99-17 196 0 164-11 194-68 194-56 0-96 17-154 67-134 116-160 159-147 243 9 53 24 67 82 75 99 14 105 22 108 159 2 95 1 101-29 150-27 43-32 61-32 113 0 58 2 65 37 100 40 41 77 114 78 152 0 13-7 50-15 83-16 59-16 60 11 106 15 26 38 60 52 76 13 17 28 41 33 54 20 51-24 133-127 236-35 35-44 54-58 113-9 40-16 93-16 119 0 35-8 59-29 93-16 25-42 85-57 133-37 116-31 135 53 165 34 12 89 28 122 34 53 11 65 11 96-4 52-25 69-21 99 18 40 52 99 79 157 72 39-5 57-1 96 20 53 28 152 35 191 14 11-6 37-11 56-11 47 0 58 21 40 79-20 66-18 77 23 122 60 66 44 129-32 129-17 0-39 6-48 13-16 12-47 108-47 147 0 28 46 58 98 65 26 3 74 12 107 20 33 7 72 16 87 19 36 8 106 97 113 144 3 21 12 60 20 87 37 130 38 282 1 378-36 94-34 112 17 162 30 30 61 48 109 64 58 19 72 29 105 73 21 28 42 56 47 63 15 21-4 68-41 100-101 87-110 99-123 158-10 52-10 60 9 90 85 135 93 156 85 205-12 69-6 93 30 132 19 19 39 45 45 57 6 13 27 27 49 33 44 12 51 17 80 54 31 40 28 76-12 154-49 93-54 109-86 265-16 76-45 184-65 240s-44 131-54 167-26 82-35 104c-9 21-23 89-31 150s-22 133-30 160c-29 94-15 176 39 225 14 14 26 35 26 48 0 12 16 40 35 62 32 35 45 41 145 65 84 21 115 24 130 16 11-6 20-15 20-20 0-4 32-41 71-82 39-40 80-92 91-115 24-51 35-52 133-22 77 24 112 26 152 11 15-6 47-13 69-15 54-6 141-65 168-114 38-68 91-53 141 41 19 36 19 36-4 104-30 86-24 117 23 130 53 15 85 4 111-38 19-30 32-40 62-45 21-3 69-23 108-43 86-45 107-79 130-206 11-63 23-98 38-115 19-20 108-82 209-144 15-10 30-30 34-45 3-15 19-58 36-97 23-52 31-84 30-125-2-67 12-90 77-126 27-15 57-42 66-58 10-17 30-44 45-61 15-16 31-41 35-55 10-35 24-50 45-50 10 0 32-11 48-25 37-31 84-33 168-6 32 10 90 23 129 29 62 10 73 15 107 52 22 23 51 43 68 46 17 4 47 24 68 46 30 31 48 40 90 47 29 4 55 11 59 15 4 3-4 43-17 87-20 71-21 84-10 103 35 54 50 94 50 133 0 50 16 64 101 89 100 29 135 29 180 0 23-16 46-42 55-64 32-75 40-87 66-96 23-8 33-4 76 32 28 24 53 54 57 70 3 15 17 38 30 52 31 35 51 118 37 158-15 45-5 70 39 93 53 27 66 51 78 146 12 92 40 158 123 283 49 74 50 76 39 118-16 63-14 75 24 149l35 68-15 55c-8 30-15 67-15 82 0 34 63 108 92 108 52 0 118 76 118 137 0 43 30 93 73 120 75 47 97 86 78 137-13 33-14 76-2 94 6 11 86 36 187 59 13 3 50-15 111-56 50-34 94-61 97-61s31-16 63-35c65-39 82-42 144-20 53 19 126 22 142 6 20-20 48-12 92 27 23 20 68 48 100 61 57 24 58 24 112 7l54-17 57 29c41 22 63 40 77 68 15 29 29 41 60 50 78 24 94 19 152-50 28-33 52-33 118-1 69 34 146 43 179 21 30-19 62-20 139-1 62 14 87 29 87 52 0 7 16 23 35 35 20 11 43 34 51 52 32 63 89 138 116 152 33 17 60 17 117 0 33-9 55-10 84-3 28 7 49 7 71-1 18-7 44-12 58-12s37-9 51-20c31-24 54-25 124-3 50 16 55 16 88 0 55-26 81-22 130 24 72 66 162 74 220 20z" fill="#fffdf8"/></svg>